<?xml version="1.0" standalone="no"?>
<!DOCTYPE svg PUBLIC "-//W3C//DTD SVG 20010904//EN"
 "http://www.w3.org/TR/2001/REC-SVG-20010904/DTD/svg10.dtd">
<svg version="1.0" xmlns="http://www.w3.org/2000/svg"
 width="640.000000pt" height="640.000000pt" viewBox="0 0 640.000000 640.000000"
 preserveAspectRatio="xMidYMid meet">
<metadata>
Created by potrace 1.14, written by Peter Selinger 2001-2017
</metadata>
<g transform="translate(0.000000,640.000000) scale(0.100000,-0.100000)"
fill="#000000" stroke="none">
<path d="M58 6370 c-10 -18 -25 -30 -38 -30 -18 0 -20 -6 -20 -71 l0 -71 33 7
c49 10 105 30 212 74 53 23 114 41 134 41 25 0 40 6 49 20 7 11 19 20 27 20 8
0 15 6 15 14 0 8 9 12 24 11 13 -2 29 1 36 5 7 4 -66 9 -162 9 -175 1 -176 1
-199 -24 -31 -32 -43 -32 -35 0 6 23 4 25 -26 25 -26 0 -37 -6 -50 -30z"/>
<path d="M1116 6385 c4 -8 10 -15 15 -15 5 0 9 -7 9 -15 0 -9 7 -18 15 -21 8
-4 15 -11 15 -16 0 -6 8 -17 17 -23 14 -11 19 -35 24 -118 4 -65 13 -118 23
-138 17 -35 13 -69 -9 -69 -7 0 -33 -19 -57 -43 -24 -24 -51 -46 -60 -50 -10
-3 -20 -18 -24 -32 -3 -14 -13 -25 -21 -25 -8 0 -21 -7 -29 -15 -9 -8 -24 -15
-35 -15 -15 0 -19 7 -19 30 0 22 11 42 40 72 23 25 36 46 31 51 -11 11 -43 -5
-98 -49 -23 -19 -44 -34 -47 -34 -4 0 -24 -11 -46 -25 -22 -14 -46 -25 -54
-25 -7 0 -20 -7 -27 -16 -12 -15 -8 -16 43 -13 l56 4 -16 -29 c-10 -16 -25
-31 -34 -33 -14 -4 -15 -9 -8 -23 8 -16 5 -20 -22 -25 -18 -4 -61 -7 -97 -7
-55 0 -67 3 -79 21 -8 11 -21 21 -28 21 -10 0 -13 7 -8 25 3 14 2 25 -2 26 -5
0 -20 3 -34 5 -57 11 -64 9 -71 -16 -6 -21 -7 -22 -9 -5 -1 11 -4 14 -7 8 -2
-7 -11 -13 -19 -13 -18 0 -18 -4 3 -72 13 -42 23 -58 36 -58 9 0 17 -4 17 -10
0 -5 -9 -10 -19 -10 -11 0 -22 -6 -25 -12 -3 -9 -9 -7 -20 6 -9 11 -16 14 -16
8 0 -7 -7 -12 -15 -12 -9 0 -18 -7 -21 -15 -5 -11 -10 -12 -25 -2 -23 15 -42
-1 -41 -36 0 -19 -9 -29 -39 -43 -22 -9 -39 -23 -39 -31 0 -7 -6 -13 -12 -13
-9 -1 -8 -4 2 -9 8 -5 49 -5 90 -1 122 13 209 16 204 8 -3 -4 21 -8 53 -9 l58
-1 -40 -19 c-22 -10 -53 -19 -70 -19 -16 0 -41 -9 -55 -20 l-25 -19 38 -16
c29 -12 42 -13 58 -4 18 9 25 7 44 -13 12 -13 25 -36 28 -50 6 -21 14 -27 39
-30 22 -2 34 -9 36 -21 3 -14 -3 -16 -35 -13 -21 2 -53 7 -72 11 -23 6 -35 4
-41 -5 -5 -8 -30 -14 -60 -15 -28 -1 -56 -7 -62 -13 -7 -7 -29 -12 -49 -12
-21 0 -41 -4 -44 -10 -3 -5 -15 -10 -26 -10 -11 0 -22 -7 -25 -15 -7 -17 -59
-45 -84 -45 -10 0 -20 -10 -23 -22 -7 -27 -3 -33 15 -22 24 16 161 31 188 22
14 -5 46 -32 72 -60 44 -48 48 -51 85 -45 21 4 43 13 49 22 14 19 28 20 20 0
-3 -9 0 -15 9 -15 8 0 15 -7 15 -15 0 -16 4 -18 37 -9 12 3 19 12 17 19 -3 7
5 15 19 19 14 3 32 8 39 11 8 3 27 -6 41 -21 15 -15 27 -22 27 -15 0 6 5 11
10 11 6 0 10 -9 10 -20 0 -23 13 -26 29 -7 8 10 7 17 -1 25 -9 9 -8 12 4 12 9
0 30 14 46 30 17 17 35 30 41 30 20 0 22 20 7 70 -15 49 -14 51 10 77 13 14
24 35 24 45 0 11 9 22 20 25 20 5 28 23 11 23 -12 0 -9 130 3 148 5 8 4 18 -3
25 -16 16 -14 37 3 37 21 0 30 20 17 33 -9 9 -14 8 -21 -3 -9 -13 -10 -13 -10
0 0 8 -14 30 -31 48 -20 21 -25 32 -15 32 8 0 16 -4 18 -9 3 -11 88 9 88 20 0
15 -58 50 -65 39 -3 -5 -15 -10 -26 -10 -11 0 -17 5 -14 10 3 6 14 10 24 10 9
0 25 6 35 13 17 12 17 15 2 29 -9 9 -16 21 -16 27 0 5 -10 17 -22 25 -21 15
-20 16 37 17 92 2 107 5 120 23 17 23 25 9 25 -44 0 -31 6 -53 19 -66 10 -12
22 -44 26 -72 4 -29 13 -56 21 -60 12 -6 13 -14 5 -34 -21 -56 -33 -150 -20
-162 9 -8 10 -7 4 4 -5 10 -5 12 2 5 6 -5 16 -38 23 -72 7 -35 17 -63 22 -63
5 0 27 9 49 20 45 23 104 29 121 12 7 -7 24 -12 39 -12 15 0 31 -4 34 -10 3
-5 -3 -10 -14 -10 -12 0 -21 -4 -21 -8 0 -5 -12 -13 -27 -20 -25 -9 -22 -10
22 -5 28 3 56 10 63 16 18 14 109 26 145 20 15 -3 27 -12 27 -19 0 -8 15 -21
33 -29 17 -9 43 -22 56 -29 26 -16 110 -12 171 7 19 6 48 10 63 9 l28 -2 -18
24 c-18 25 -43 33 -57 19 -9 -9 -29 -12 -110 -14 -64 -2 -71 0 -90 24 -18 22
-21 39 -20 114 1 48 4 97 5 108 4 18 -1 20 -43 17 -37 -3 -54 1 -74 17 -15 12
-41 21 -60 21 -43 0 -45 22 -7 62 24 25 25 28 8 34 -10 4 -41 2 -69 -5 -97
-24 -142 -25 -157 -4 -8 11 -23 23 -34 27 -19 8 -19 8 4 17 19 8 21 12 11 24
-8 9 -8 15 -2 15 6 0 18 8 28 17 15 16 17 16 30 -2 13 -18 14 -18 14 3 0 13 6
22 15 22 8 0 15 5 15 11 0 5 5 7 10 4 6 -3 22 3 36 14 21 16 30 18 52 9 26
-10 94 -12 155 -4 26 3 29 1 24 -23 -3 -15 5 -56 20 -96 14 -38 27 -85 30
-103 3 -18 9 -35 14 -38 10 -6 32 44 24 56 -3 5 1 11 7 13 9 4 10 8 3 14 -6 4
-18 20 -28 36 -16 24 -16 28 -2 33 26 10 17 42 -20 71 -40 32 -42 39 -15 46
14 3 20 14 20 31 0 15 7 29 15 32 18 7 20 51 3 56 -7 3 -9 11 -3 24 4 10 7 23
6 27 -1 4 8 3 19 -3 15 -8 32 -7 67 5 64 22 77 15 69 -36 -6 -36 -3 -43 19
-61 33 -25 34 -58 2 -58 -28 0 -53 -25 -62 -62 -7 -27 -6 -28 31 -28 28 0 46
7 67 28 l30 27 -8 -25 c-14 -48 -11 -85 8 -85 9 0 17 3 17 8 0 4 8 15 18 26
15 16 18 17 30 3 6 -9 12 -24 12 -34 0 -11 7 -18 19 -18 19 0 22 -14 8 -37 -8
-13 8 -27 21 -19 5 3 18 -2 30 -10 20 -14 21 -17 8 -42 -8 -15 -28 -42 -45
-60 -33 -36 -36 -43 -22 -57 5 -6 11 -26 13 -45 l3 -35 55 4 c33 2 58 9 63 17
4 7 14 11 22 8 8 -4 15 -1 15 5 0 6 -7 11 -15 11 -21 0 -32 33 -37 111 -4 64
-3 67 19 67 12 0 20 -4 18 -8 -8 -13 14 -62 25 -55 6 4 8 10 5 15 -3 5 -1 11
5 15 5 3 10 22 10 40 0 31 -5 37 -37 50 -21 9 -49 13 -63 10 -24 -5 -24 -5 -6
10 11 8 30 15 42 15 13 0 26 5 29 10 4 6 11 8 16 4 5 -3 16 10 23 28 18 43 57
57 156 56 75 0 140 -18 140 -38 0 -6 16 -18 35 -27 33 -16 36 -16 56 3 20 18
21 18 35 0 11 -16 11 -22 1 -34 -8 -11 -9 -16 -1 -19 6 -2 10 -18 8 -35 -2
-17 1 -37 7 -44 7 -9 5 -14 -9 -18 -22 -7 -58 -44 -50 -51 4 -4 85 14 154 36
17 5 40 9 52 9 23 0 29 19 11 37 -7 7 8 12 53 17 78 9 127 1 154 -25 11 -10
30 -19 42 -19 11 0 24 -4 27 -10 3 -5 23 -17 43 -27 20 -9 53 -27 72 -39 19
-13 60 -30 90 -39 30 -9 69 -23 85 -31 l30 -15 -33 29 c-18 16 -59 42 -90 58
-31 15 -86 45 -121 66 -34 21 -70 38 -80 38 -24 1 -57 28 -45 39 10 9 137 31
183 31 27 0 29 -2 26 -33 l-3 -32 127 -3 c69 -2 130 -7 135 -12 4 -5 13 -18
20 -31 17 -33 57 -58 96 -61 19 -1 47 -10 62 -20 14 -10 31 -18 36 -18 6 0 19
-10 29 -23 15 -20 48 -40 56 -35 1 1 13 -5 27 -12 13 -7 40 -14 59 -16 32 -2
81 -34 53 -34 -7 0 -10 -4 -7 -10 3 -5 24 -10 46 -10 26 0 46 -7 59 -20 11
-11 33 -20 49 -20 17 0 33 -5 37 -11 4 -7 24 -9 49 -6 27 3 48 0 57 -8 7 -7
47 -20 88 -28 81 -18 311 -49 348 -48 17 1 26 -9 38 -39 19 -47 7 -46 214 -20
108 13 157 16 161 8 4 -6 19 -8 35 -4 58 13 83 15 294 21 118 4 243 11 277 15
36 5 77 4 100 -2 21 -5 49 -12 63 -15 24 -5 24 -5 5 10 -16 13 -17 16 -5 21
29 9 152 27 157 22 5 -5 -58 -65 -69 -66 -31 -1 -438 -405 -438 -435 0 -8 -27
-40 -61 -72 -88 -84 -113 -130 -128 -238 -7 -49 -17 -100 -22 -113 -5 -13 -9
-32 -9 -43 0 -23 -36 -58 -60 -59 -24 0 -146 -45 -174 -63 -14 -10 -28 -17
-32 -17 -4 0 -45 -26 -91 -57 -47 -32 -92 -62 -102 -68 -9 -5 -31 -20 -48 -33
-17 -12 -40 -22 -51 -22 -22 0 -47 -24 -38 -38 3 -6 -4 -17 -17 -25 -12 -8
-40 -32 -60 -52 l-38 -38 -37 22 c-20 12 -91 49 -157 82 -101 50 -123 65 -133
91 -10 27 -9 31 8 35 24 6 25 19 5 57 -14 27 -14 31 0 39 14 7 13 13 -6 47
-14 25 -20 48 -16 66 3 19 -1 36 -13 52 -11 13 -17 29 -14 36 3 7 -4 20 -15
30 -11 10 -18 23 -14 29 3 5 -4 17 -16 26 -12 9 -24 26 -26 36 -2 11 -4 20 -5
20 -1 0 -4 13 -6 29 -1 15 -10 36 -18 45 -9 10 -16 22 -16 27 -1 23 -40 54
-69 54 -28 0 -31 3 -31 30 0 18 -5 30 -13 30 -7 0 -23 11 -35 25 -12 14 -36
28 -53 32 -17 3 -33 12 -36 19 -3 9 -21 14 -44 14 -26 0 -42 5 -45 15 -4 8
-16 15 -28 15 -17 0 -18 2 -6 10 10 6 -14 8 -70 5 -55 -2 -90 1 -99 8 -17 14
-177 19 -251 7 -30 -5 -81 -11 -113 -13 -31 -2 -60 -6 -63 -10 -3 -3 -12 -3
-20 0 -8 3 -14 -1 -14 -8 0 -12 -2 -12 -9 0 -6 9 -11 10 -15 2 -4 -6 -16 -11
-27 -11 -10 0 -19 -5 -19 -10 0 -6 -3 -9 -7 -8 -11 4 -83 -42 -83 -51 0 -13
-52 1 -82 21 -70 46 -86 56 -132 77 -28 13 -64 34 -81 47 -18 13 -35 24 -39
24 -4 0 -22 11 -39 24 -18 13 -52 34 -77 47 -25 13 -51 32 -58 42 -14 19 -92
25 -92 7 0 -5 7 -10 14 -10 12 0 72 -33 146 -80 44 -28 171 -99 215 -120 28
-13 70 -37 95 -54 25 -17 47 -32 49 -33 2 -1 0 -14 -3 -29 -6 -22 -11 -25 -31
-20 -23 6 -25 3 -31 -34 -4 -26 -10 -38 -16 -32 -11 11 -90 -6 -83 -18 3 -4
-3 -11 -12 -14 -15 -6 -15 -8 -3 -16 12 -8 8 -12 -17 -22 -18 -7 -34 -16 -34
-20 -1 -4 -2 -13 -3 -18 0 -6 -8 -15 -16 -20 -12 -7 -11 -12 4 -29 19 -21 19
-21 -17 -21 -51 0 -73 -25 -74 -82 -1 -54 -8 -68 -32 -68 -25 0 -39 -18 -33
-45 2 -15 9 -22 18 -18 21 8 17 -11 -6 -25 -12 -7 -18 -17 -15 -23 4 -5 1 -17
-6 -25 -6 -8 -9 -17 -6 -20 3 -4 -3 -15 -14 -27 -21 -23 -24 -42 -9 -52 6 -4
6 -15 -1 -32 -7 -20 -6 -28 7 -38 12 -8 14 -14 6 -19 -13 -8 -16 -48 -5 -60
10 -10 12 -50 2 -62 -6 -7 -4 -16 6 -24 8 -7 15 -17 15 -22 0 -5 13 -23 30
-39 16 -16 27 -35 24 -42 -3 -8 2 -27 11 -43 16 -32 20 -68 6 -60 -19 12 -37
-157 -22 -210 13 -47 2 -62 -49 -64 -55 -3 -57 -2 -68 29 -7 20 -19 30 -39 34
-32 6 -57 -9 -48 -31 3 -10 0 -12 -10 -8 -9 3 -15 0 -15 -9 0 -18 -49 -76 -64
-74 -19 4 -67 -21 -61 -31 3 -5 11 -8 18 -6 7 1 9 1 4 -1 -4 -3 -7 -11 -7 -18
0 -15 -27 -28 -41 -20 -4 3 -22 -1 -38 -10 -16 -8 -37 -12 -45 -9 -12 5 -16
-1 -16 -25 0 -29 -9 -37 -35 -32 -12 3 -130 -18 -152 -26 -14 -5 -12 0 7 24
15 19 35 32 48 32 13 1 20 -3 17 -9 -3 -6 -2 -10 4 -10 24 0 17 17 -12 32 -85
41 -119 52 -135 41 -10 -6 -16 -20 -14 -32 2 -14 -2 -21 -12 -21 -9 0 -16 -4
-16 -10 0 -25 -31 -6 -45 28 -41 99 -37 94 -74 87 -19 -4 -42 -16 -51 -28 -16
-20 -18 -20 -35 -4 -9 9 -20 15 -25 12 -5 -3 -11 1 -13 7 -13 32 -6 -23 8 -62
20 -58 19 -99 -2 -107 -29 -10 -103 -43 -103 -46 0 -1 32 -1 70 1 39 2 76 0
83 -5 8 -7 38 -6 85 0 59 9 71 14 67 27 -3 9 4 26 15 38 11 11 20 26 20 32 0
11 14 13 47 4 26 -7 27 -45 1 -52 -10 -2 -18 -9 -18 -14 0 -14 159 -4 335 20
283 39 310 43 394 58 89 16 131 13 131 -10 0 -28 59 -66 102 -66 l40 0 -6 -40
c-20 -133 -13 -120 -59 -120 -47 0 -113 -16 -122 -30 -3 -4 2 -15 10 -23 17
-17 20 -68 6 -82 -5 -6 -13 -28 -17 -49 l-7 -39 36 27 c20 15 55 50 78 77 23
27 45 49 50 49 5 0 9 -17 9 -38 0 -105 105 -225 397 -455 75 -59 263 -147 313
-147 26 0 30 -4 30 -26 0 -14 -4 -23 -10 -19 -5 3 -10 -3 -10 -14 0 -12 -4
-21 -10 -21 -5 0 -10 -18 -10 -40 0 -29 5 -42 19 -50 33 -17 37 -12 60 55 23
72 26 116 10 146 -17 32 -1 56 57 90 30 17 60 40 67 50 7 11 23 19 39 19 34 0
63 39 73 97 6 36 4 43 -10 43 -9 0 -13 -4 -10 -10 3 -5 -3 -20 -14 -32 -12
-12 -27 -34 -33 -50 -7 -15 -19 -28 -25 -28 -7 0 -13 -4 -13 -9 0 -5 -14 -14
-31 -20 -27 -9 -30 -9 -19 4 12 14 5 55 -9 55 -14 0 -34 -58 -27 -77 4 -10 4
-14 0 -10 -4 3 -20 -3 -35 -14 -16 -11 -33 -17 -39 -14 -6 3 -7 -1 -4 -9 5
-12 -1 -16 -24 -16 -16 0 -35 -6 -41 -14 -19 -23 -68 -30 -86 -12 -8 8 -15 22
-15 30 0 9 -4 16 -10 16 -17 0 -49 80 -56 139 l-6 57 48 11 c27 6 74 11 104
12 30 1 77 6 103 12 26 6 61 9 77 7 29 -4 38 4 46 41 1 8 8 17 14 21 22 14 -4
17 -133 18 -142 1 -167 6 -167 30 0 9 -11 30 -25 46 -14 16 -25 37 -25 47 0
10 -4 21 -10 24 -5 3 -10 20 -10 37 0 22 4 29 14 25 13 -5 26 12 26 33 0 5
-12 10 -27 12 -16 2 -27 8 -26 14 1 7 -7 20 -17 29 -14 13 -20 31 -20 61 0 38
3 43 20 41 31 -5 34 -14 15 -44 -14 -20 -15 -28 -5 -31 7 -3 20 -13 28 -23 9
-11 22 -19 29 -19 7 0 13 -7 13 -15 0 -20 19 -19 53 4 18 11 49 19 85 20 32 1
82 5 112 10 30 5 58 7 63 4 4 -2 7 3 7 11 0 13 -13 16 -64 16 -55 0 -69 4 -95
26 -26 21 -29 29 -20 45 5 11 7 29 4 39 -5 15 -2 20 12 20 10 0 35 3 57 7 30
5 38 3 34 -8 -2 -7 -15 -17 -29 -21 -13 -4 2 -5 34 -2 65 6 117 -2 117 -19 0
-6 -9 -21 -21 -33 l-20 -22 36 -4 c31 -4 39 0 61 29 21 28 23 35 12 53 -15 23
-66 50 -96 50 -12 0 -33 5 -47 10 -18 7 -33 7 -45 0 -15 -8 -21 -6 -28 7 -9
15 -14 15 -51 -10 -57 -38 -81 -35 -44 6 17 18 17 19 -17 17 -50 -3 -57 -1
-37 11 9 5 17 18 17 27 1 27 25 52 50 52 13 0 31 7 41 16 9 8 39 17 66 18 75
5 112 16 106 32 -7 19 -55 18 -97 -2 -31 -16 -37 -16 -68 -1 -37 17 -104 24
-130 12 -16 -6 -16 -9 4 -24 l21 -18 -21 -5 c-27 -8 -52 24 -44 54 11 42 34
58 83 58 44 0 47 2 53 31 9 47 7 61 -6 57 -7 -3 -21 6 -31 19 -17 21 -17 26
-5 46 9 13 17 60 21 113 5 86 4 93 -16 111 -38 34 -135 73 -180 73 -23 0 -53
7 -65 16 -12 8 -27 12 -33 8 -30 -18 9 45 58 94 53 52 55 56 50 98 -2 25 -1
47 4 50 5 3 9 16 9 29 0 30 54 72 73 57 7 -6 26 -12 42 -14 25 -2 31 1 33 19
2 15 13 25 28 29 13 3 24 10 24 15 0 14 28 11 32 -3 3 -7 22 -14 44 -15 60 -4
104 -14 104 -25 0 -5 16 -8 35 -7 19 2 40 -2 47 -9 6 -6 18 -12 24 -12 7 0 21
-11 32 -25 11 -14 29 -25 41 -25 12 0 21 -4 21 -10 0 -5 8 -18 19 -29 10 -10
21 -40 25 -70 4 -28 11 -51 16 -51 6 0 10 -18 10 -40 0 -36 -2 -40 -25 -40
-14 0 -25 -4 -25 -9 0 -5 -19 -12 -42 -16 -91 -13 -144 -29 -174 -52 -17 -12
-35 -23 -41 -23 -5 0 -18 -9 -28 -20 -21 -23 -8 -49 17 -34 7 5 29 9 49 9 l36
1 -16 -28 c-9 -15 -19 -28 -22 -28 -3 0 -4 -10 -2 -22 6 -28 62 -58 106 -57
32 0 32 0 7 11 -24 10 -24 10 -5 18 11 5 52 9 92 9 69 1 123 15 123 33 0 4 -5
8 -10 8 -6 0 -18 12 -28 28 -18 29 -62 34 -62 6 0 -10 -14 -14 -54 -14 -52 0
-54 1 -60 31 -5 25 -10 30 -26 26 -29 -8 -25 -1 13 18 44 23 81 29 154 28 48
-1 66 -6 82 -22 12 -12 28 -21 37 -21 12 0 15 -7 12 -25 -3 -13 -1 -22 4 -19
5 3 8 -11 6 -30 -1 -22 4 -42 13 -51 13 -14 18 -12 44 15 23 24 25 30 12 30
-15 0 -14 6 9 49 14 28 32 55 40 62 8 6 14 20 14 30 0 10 9 33 20 51 11 18 20
41 20 51 0 10 6 20 14 23 16 6 146 -52 146 -66 0 -5 8 -10 18 -10 9 0 46 -17
82 -38 78 -46 83 -63 41 -132 -17 -28 -31 -54 -31 -58 0 -4 -9 -25 -20 -47
-11 -22 -20 -45 -20 -52 0 -23 -18 -22 -46 2 -37 32 -149 53 -170 32 -4 -3 -8
-36 -9 -72 -1 -44 -7 -71 -18 -83 -9 -10 -21 -42 -28 -72 -6 -30 -21 -74 -34
-97 -13 -23 -26 -60 -30 -82 -6 -37 -4 -41 24 -55 16 -9 32 -12 35 -7 3 5 -1
12 -9 15 -18 6 -15 70 4 89 6 6 11 22 11 36 0 36 41 83 106 122 31 19 77 53
101 77 23 23 49 42 55 42 7 1 30 7 51 15 37 13 40 12 71 -15 35 -31 32 -31 64
15 4 6 34 20 66 30 37 13 61 27 64 38 5 19 56 24 67 7 13 -20 27 -10 21 16 -6
24 -5 25 28 19 32 -6 98 5 237 41 78 20 126 18 157 -7 l27 -21 -47 7 c-39 6
-48 4 -48 -7 0 -11 8 -14 27 -10 21 4 25 2 20 -11 -8 -21 12 -34 24 -16 7 11
11 10 23 -6 13 -18 13 -21 -7 -27 -19 -5 -18 -6 8 -8 30 -2 30 -2 5 -10 -36
-11 -52 -11 -45 0 3 6 1 10 -4 10 -6 0 -10 3 -10 8 5 33 -33 47 -45 16 -9 -23
-8 -24 19 -24 14 0 25 -6 25 -12 0 -10 -28 -13 -105 -14 -68 -1 -110 -5 -120
-14 -12 -10 -15 -10 -15 5 0 15 -6 17 -36 12 -46 -8 -52 -14 -30 -30 17 -12
13 -47 -5 -47 -5 0 -9 -11 -9 -25 0 -18 5 -25 20 -25 15 0 20 -7 20 -25 0 -17
-6 -25 -17 -25 -9 0 -24 -7 -34 -16 -16 -14 -18 -14 -28 4 -6 11 -8 22 -5 24
10 10 -34 73 -47 69 -47 -15 -108 -4 -79 14 5 3 10 12 10 18 0 8 -3 7 -9 -2
-8 -12 -16 -12 -55 1 -25 8 -47 12 -48 8 -2 -5 -19 -10 -39 -13 -19 -2 -46
-10 -60 -17 -37 -21 -72 -19 -90 3 -16 20 -16 20 -48 -4 -41 -30 -41 -53 -1
-47 17 3 30 3 30 0 0 -9 -65 -72 -75 -72 -5 0 -21 -10 -35 -21 l-25 -21 25 7
c14 4 37 9 53 12 15 3 34 15 42 26 8 12 15 18 15 13 0 -5 8 -3 18 5 39 32 62
40 82 29 11 -6 20 -14 20 -18 0 -11 -87 -92 -99 -92 -6 0 -11 -4 -11 -10 0
-27 108 2 136 37 27 33 32 83 8 83 -22 0 -8 17 29 36 21 12 32 13 35 5 2 -6
13 -11 24 -11 17 0 19 -4 14 -27 -4 -16 -10 -41 -13 -56 -6 -32 -29 -50 -100
-77 -26 -10 -74 -28 -105 -41 -32 -12 -58 -26 -58 -30 0 -13 40 -10 87 6 99
34 223 34 223 -1 0 -8 -7 -30 -14 -49 -17 -40 -14 -43 17 -15 22 21 68 21 142
0 17 -5 53 -12 80 -15 103 -12 190 -28 199 -36 11 -10 46 33 46 55 0 9 4 16 9
16 5 0 12 13 16 30 4 16 9 30 11 30 5 0 24 -15 55 -42 14 -14 24 -15 44 -8 14
5 35 6 47 1 l23 -8 -23 -7 c-12 -4 -40 -7 -62 -8 -22 0 -45 -7 -51 -14 -6 -8
-20 -14 -30 -14 -14 0 -21 -9 -26 -30 -5 -28 -29 -49 -75 -66 -24 -8 -23 -17
4 -29 12 -6 23 -16 26 -22 5 -17 -42 -17 -67 -1 -10 6 -26 8 -36 4 -17 -6 -17
-7 1 -21 11 -7 37 -16 57 -20 20 -4 37 -11 37 -15 0 -5 19 -11 43 -15 63 -11
72 -22 42 -57 -41 -49 -30 -83 13 -42 34 31 72 31 102 0 29 -32 21 -56 -20
-56 -49 0 -34 -15 28 -26 31 -6 58 -11 59 -10 0 0 -6 15 -15 32 -10 18 -25 48
-36 68 -21 42 -16 64 16 70 13 2 51 10 86 17 68 13 76 28 23 42 -25 6 -37 4
-50 -7 -21 -19 -72 -21 -89 -4 -24 24 -13 47 26 57 20 6 43 11 50 11 22 0 13
14 -21 33 -17 10 -26 13 -19 6 26 -27 14 -40 -33 -35 -42 4 -58 -5 -35 -19 8
-5 7 -11 0 -20 -7 -9 -9 -27 -5 -45 8 -35 -7 -40 -43 -14 -29 20 -32 91 -4
102 14 6 16 11 8 27 -6 11 -17 20 -25 20 -26 0 -21 20 10 37 34 20 65 23 74 8
3 -5 16 -10 28 -10 21 1 21 1 4 14 -16 12 -7 14 70 18 l88 3 49 -50 c95 -98
93 -95 73 -95 -9 0 -17 -6 -17 -14 0 -8 -6 -16 -12 -19 -7 -2 -10 -8 -5 -12 4
-5 13 -3 19 3 17 17 48 15 55 -4 3 -8 11 -13 18 -10 16 6 31 -85 19 -106 -15
-24 -7 -129 11 -148 10 -11 19 -42 22 -69 5 -59 -8 -66 -54 -27 -25 22 -26 26
-15 52 12 24 11 26 -2 15 -9 -8 -27 -11 -41 -9 -14 3 -25 1 -25 -4 0 -13 -42
-47 -57 -48 -8 0 -13 -15 -13 -41 0 -36 -2 -40 -22 -37 -18 2 -25 15 -37 63
-9 33 -18 62 -22 65 -3 3 -14 20 -23 38 -17 33 -30 44 -19 16 5 -14 -2 -15
-53 -9 -32 3 -71 9 -86 11 -17 3 -28 1 -28 -5 0 -6 19 -11 43 -12 23 0 60 -3
81 -7 42 -8 42 -6 91 -146 17 -46 19 -48 48 -42 17 3 39 14 49 23 25 22 33 10
33 -50 0 -29 3 -56 7 -62 3 -5 9 -31 13 -57 7 -49 -6 -78 -38 -78 -17 0 -47
32 -64 68 -11 25 -12 24 -8 -20 2 -34 -1 -50 -11 -56 -12 -7 -12 -11 2 -30 20
-29 36 -28 85 5 34 22 42 24 50 12 5 -8 7 -28 4 -46 -3 -18 0 -41 7 -53 11
-19 10 -24 -11 -41 -13 -10 -37 -19 -55 -19 -25 0 -36 7 -50 33 -16 27 -54 74
-111 137 -7 8 -16 39 -20 69 -8 64 -41 177 -61 208 -13 20 -19 21 -114 16 -84
-5 -103 -3 -118 11 -10 9 -40 23 -65 32 -42 14 -49 14 -78 0 -23 -12 -36 -13
-45 -5 -10 8 -15 5 -20 -15 -9 -37 -28 -50 -45 -30 -10 12 -10 19 -1 32 7 10
18 28 24 42 7 14 23 36 35 50 25 27 27 38 13 60 -8 12 -10 12 -10 1 0 -8 -3
-11 -7 -8 -3 4 0 18 7 32 11 21 11 29 0 50 -8 14 -18 24 -24 22 -17 -6 -64
-90 -65 -116 -1 -23 0 -23 17 -8 44 40 43 8 -1 -58 -40 -59 -97 -208 -97 -254
0 -17 -8 -43 -17 -57 -9 -14 -17 -48 -18 -75 -2 -62 -20 -84 -35 -45 -5 15
-10 33 -10 39 -1 16 -36 57 -48 57 -10 0 -43 -64 -72 -140 -8 -19 -24 -53 -36
-76 -31 -55 -108 -290 -150 -452 -31 -122 -107 -359 -140 -439 -9 -20 -23 -35
-39 -39 -18 -4 -25 -13 -25 -30 0 -17 -6 -24 -20 -24 -11 0 -20 7 -20 15 0 22
-21 18 -27 -5 -6 -23 -43 -27 -43 -5 0 8 -9 15 -20 15 -13 0 -20 -7 -20 -20 0
-11 5 -20 11 -20 7 0 18 -8 26 -18 13 -16 14 -16 29 6 19 25 34 29 34 7 0 -21
27 -19 40 3 9 16 11 16 21 -1 11 -18 22 -18 82 -1 12 4 17 0 17 -13 0 -18 -46
-145 -77 -212 -8 -18 -39 -106 -68 -195 -53 -163 -83 -241 -135 -351 -29 -61
-60 -134 -60 -141 0 -2 307 -4 682 -4 393 0 678 4 673 9 -6 5 -26 14 -46 20
-38 12 -79 45 -79 62 0 6 6 9 13 6 8 -3 19 -2 26 3 15 9 21 69 10 92 -6 10 -5
19 1 23 5 3 10 23 10 43 0 34 1 35 17 19 14 -14 18 -37 19 -113 1 -53 5 -98 8
-101 17 -18 106 -39 146 -35 42 4 44 3 25 -12 -18 -14 -4 -15 165 -14 102 1
163 3 135 5 -45 4 -64 14 -65 36 0 4 11 7 25 7 31 0 33 17 4 22 -28 4 -56 43
-64 90 -6 32 -4 37 11 36 11 -1 53 24 95 56 75 57 76 58 88 121 12 59 15 65
46 75 18 6 43 19 54 29 13 11 30 17 42 14 26 -7 11 -24 -41 -48 -22 -10 -40
-24 -40 -32 0 -16 14 -17 41 -3 16 9 19 7 19 -9 0 -15 -9 -23 -32 -29 -46 -12
-48 -32 -4 -32 32 0 38 -4 35 -26 0 -4 5 -11 13 -15 8 -5 -7 -9 -39 -9 -29 0
-53 -4 -53 -10 0 -5 13 -10 28 -10 20 0 35 -9 51 -30 26 -35 22 -46 -19 -55
-26 -6 -29 -10 -24 -30 5 -20 1 -25 -20 -31 -15 -3 -39 -1 -54 4 -15 6 -45 14
-67 17 l-40 6 39 -15 c47 -18 57 -30 60 -76 2 -25 42 -23 62 2 11 13 27 29 36
36 15 12 16 9 11 -27 -7 -54 8 -71 64 -71 37 0 44 3 41 18 -1 9 1 23 5 30 5 7
3 28 -3 47 -6 19 -8 44 -5 56 5 14 4 19 -4 15 -7 -5 -9 -1 -5 8 7 17 24 12 24
-7 1 -7 14 -28 30 -47 29 -33 40 -57 21 -46 -5 3 -11 -1 -15 -9 -6 -17 9 -29
25 -20 5 4 15 18 20 32 7 20 6 30 -8 45 -14 16 -15 23 -5 38 7 11 12 29 12 40
0 14 7 20 22 20 20 0 20 1 5 18 -23 25 -22 46 1 37 9 -4 23 -9 30 -12 19 -8
14 18 -8 42 -31 33 -65 22 -96 -31 -14 -24 -30 -44 -35 -44 -14 0 -11 36 6 77
16 39 20 93 6 93 -4 0 -5 18 -1 40 4 22 5 40 1 40 -3 0 2 5 12 11 14 8 16 18
11 46 -4 20 -2 38 3 42 18 12 24 58 8 65 -8 3 -15 11 -15 18 0 9 3 9 12 0 19
-19 28 -14 28 12 0 14 9 31 20 39 11 8 18 16 15 19 -3 3 3 13 14 22 18 17 19
16 26 -3 3 -12 4 -35 0 -52 -6 -28 -5 -29 18 -24 14 4 28 2 31 -4 4 -6 11 -11
17 -11 5 0 9 213 9 551 0 480 -2 550 -15 546 -8 -4 -17 -2 -20 3 -4 6 3 10 14
10 20 0 20 5 21 393 0 216 -2 396 -5 399 -3 3 -28 -3 -55 -13 -30 -11 -51 -15
-55 -9 -3 6 -2 10 4 10 5 0 32 10 60 23 35 15 51 28 51 41 0 20 -18 19 -77 -5
-73 -30 -37 22 39 57 l37 17 0 326 c0 317 0 325 -18 302 -15 -20 -21 -22 -39
-12 -29 15 -42 14 -42 -5 0 -10 -4 -12 -12 -7 -7 4 -33 10 -58 13 l-44 5 64
22 c36 12 76 24 90 27 14 4 34 13 45 21 30 24 3 34 -72 29 -39 -3 -63 -1 -63
5 0 16 47 24 101 18 l49 -6 0 1049 c0 578 -2 1050 -5 1050 -3 0 -40 -53 -82
-117 -74 -114 -142 -218 -154 -236 -10 -14 -144 -26 -434 -37 -148 -6 -288
-12 -310 -13 -70 -5 -152 12 -253 49 -53 20 -98 40 -100 45 -2 5 -10 9 -18 9
-21 0 -92 47 -103 69 -6 10 -13 35 -15 55 -4 30 -2 36 12 34 11 -2 17 4 17 17
0 11 6 20 14 20 7 0 22 23 32 51 12 32 29 56 44 64 14 7 25 20 25 27 0 7 8 16
18 20 29 11 44 25 32 33 -13 8 -3 37 15 44 22 8 67 -44 61 -70 -3 -12 3 -48
14 -80 11 -33 20 -66 20 -74 0 -20 61 -90 78 -90 16 0 15 25 -3 59 -11 22 -12
37 -4 67 6 22 14 43 19 47 4 5 5 27 2 49 -5 40 -4 41 21 36 14 -3 26 -2 25 1
-1 3 2 13 5 21 3 8 7 23 9 33 3 17 18 19 173 22 94 2 202 7 240 11 l70 9 -60
6 c-33 4 -141 7 -240 8 -99 1 -187 6 -195 11 -8 5 -12 10 -7 10 13 0 -21 56
-45 73 -13 8 -36 27 -53 41 -16 14 -34 29 -40 33 -120 94 -136 109 -128 117 4
3 1 6 -5 6 -7 0 -12 16 -12 41 0 31 -6 46 -24 60 -28 22 -37 50 -22 70 16 20
51 47 42 32 -14 -24 13 -53 50 -53 19 0 51 -7 71 -15 47 -20 53 -19 53 6 0 17
-3 19 -13 10 -22 -18 -39 29 -22 62 7 14 10 29 7 33 -4 4 -1 4 6 0 15 -9 26 3
73 73 53 82 55 81 -156 81 l-186 0 -29 -64 c-17 -35 -30 -69 -30 -75 0 -6 -4
-11 -9 -11 -5 0 -7 -8 -4 -19 4 -15 -4 -20 -41 -30 -25 -6 -56 -11 -69 -11
-31 0 -133 32 -184 59 -44 22 -103 83 -103 106 0 22 14 18 25 -7 18 -39 35
-33 35 11 l0 41 -1720 0 c-1527 0 -1719 -2 -1714 -15z m724 -39 c0 -25 -23
-35 -66 -28 -16 2 -20 8 -16 28 4 20 10 24 43 24 34 0 39 -3 39 -24z m3334
-151 c3 -8 1 -15 -4 -15 -6 0 -10 7 -10 15 0 8 2 15 4 15 2 0 6 -7 10 -15z
m-1712 -44 c-12 -28 -21 -37 -34 -33 -31 8 -41 29 -25 52 7 11 16 17 20 14 3
-3 14 -1 24 4 28 16 33 5 15 -37z m273 29 c3 -5 1 -10 -4 -10 -6 0 -11 5 -11
10 0 6 2 10 4 10 3 0 8 -4 11 -10z m-18 -18 c15 -9 -5 -39 -27 -39 -8 0 -21
-2 -29 -4 -8 -2 -17 4 -19 14 -3 15 2 18 25 17 42 -3 50 -1 33 10 -8 5 -10 10
-5 10 6 0 15 -4 22 -8z m-177 -57 c0 -17 -20 -24 -53 -18 -35 7 -34 19 1 31
31 10 52 5 52 -13z m-100 -75 c0 -16 -3 -29 -7 -29 -19 3 -27 -2 -15 -10 8 -5
12 -17 10 -27 -8 -37 -30 23 -22 61 8 44 34 48 34 5z m-45 -108 c-3 -7 -8 -25
-11 -38 -4 -15 -13 -24 -25 -24 -10 0 -19 1 -19 3 0 1 -4 17 -9 35 -13 43 8
67 45 50 15 -7 23 -17 19 -26z m-158 -11 c6 -10 26 -21 44 -25 31 -6 35 -15 7
-20 -7 -1 -19 -5 -25 -9 -9 -6 -13 -2 -13 12 0 11 -12 29 -26 40 -15 12 -21
21 -13 21 8 0 19 -8 26 -19z m-2027 -61 c0 -11 -2 -20 -3 -20 -2 0 -12 9 -22
20 -18 19 -17 20 3 20 15 0 22 -6 22 -20z m-30 -4 c0 -2 -7 -9 -15 -16 -12
-10 -15 -10 -15 4 0 9 7 16 15 16 8 0 15 -2 15 -4z m2266 -48 c16 -13 30 -34
32 -48 4 -46 10 -54 29 -39 15 12 16 12 11 -8 -5 -18 -2 -21 18 -17 19 4 27
-1 35 -22 5 -15 8 -33 5 -40 -6 -15 -114 -18 -136 -4 -10 6 -11 10 -3 10 9 0
10 7 4 23 -5 13 -7 35 -4 50 3 16 1 27 -5 27 -18 0 -33 38 -26 65 3 14 7 25 8
25 1 0 15 -10 32 -22z m-288 -12 c17 -10 15 -26 -2 -26 -8 0 -16 -10 -18 -22
-4 -26 -30 -31 -55 -11 -13 11 -15 16 -5 20 10 4 10 8 1 20 -10 11 -10 16 0
23 15 9 62 7 79 -4z m1960 -57 c3 -38 -14 -30 -20 10 -3 18 0 27 7 25 6 -3 12
-18 13 -35z m-1598 21 c0 -13 -11 -13 -30 0 -12 8 -11 10 8 10 12 0 22 -4 22
-10z m-2550 -10 c0 -5 -2 -10 -4 -10 -3 0 -8 5 -11 10 -3 6 -1 10 4 10 6 0 11
-4 11 -10z m2580 0 c0 -5 -2 -10 -4 -10 -3 0 -8 5 -11 10 -3 6 -1 10 4 10 6 0
11 -4 11 -10z m-2600 -25 c19 -23 1 -35 -48 -32 -44 3 -49 7 -43 35 2 14 79
12 91 -3z m-388 -18 c3 -17 0 -23 -14 -23 -21 0 -23 11 -5 31 6 8 13 14 13 15
1 0 4 -10 6 -23z m1628 -31 c0 -8 -7 -16 -15 -20 -15 -5 -21 14 -8 27 11 12
23 8 23 -7z m-1680 -16 c0 -5 -8 -10 -17 -10 -15 0 -16 2 -3 10 19 12 20 12
20 0z m767 -86 c-9 -9 -28 6 -21 18 4 6 10 6 17 -1 6 -6 8 -13 4 -17z m1540
-24 c9 -25 9 -30 -3 -30 -9 0 -13 4 -9 9 3 5 1 12 -5 16 -12 7 -14 35 -2 35 4
0 13 -13 19 -30z m-2418 -39 c8 -5 9 -11 3 -15 -13 -8 -42 3 -42 15 0 11 21
11 39 0z m3440 -20 c-15 -5 -22 6 -14 19 6 9 10 9 16 -1 5 -8 4 -15 -2 -18z
m-2899 5 c0 -3 -4 -8 -10 -11 -5 -3 -10 -1 -10 4 0 6 5 11 10 11 6 0 10 -2 10
-4z m-54 -41 c-3 -8 -17 -15 -31 -15 -19 0 -25 5 -25 21 0 17 5 20 25 17 14
-3 25 0 26 6 0 6 3 6 6 -2 3 -7 2 -19 -1 -27z m-137 -4 c9 -6 10 -11 2 -15 -6
-4 -21 0 -33 8 -21 15 -21 16 -3 16 11 0 26 -4 34 -9z m-49 -17 c0 -2 -7 -4
-15 -4 -8 0 -15 4 -15 10 0 5 7 7 15 4 8 -4 15 -8 15 -10z m790 -84 c58 -14
77 -17 125 -19 29 -1 36 -4 27 -13 -11 -11 -56 -12 -203 -2 -46 4 -100 7 -119
8 -28 2 -36 7 -38 25 -2 13 1 27 8 31 11 7 115 -8 200 -30z m720 19 c0 -24
-23 -21 -28 4 -2 10 3 17 12 17 10 0 16 -9 16 -21z m-1319 -39 c33 0 38 -17
26 -86 -7 -47 -11 -52 -39 -58 -42 -8 -50 2 -53 66 -2 65 10 107 27 90 7 -7
24 -12 39 -12z m-130 0 c5 0 9 -4 9 -10 0 -5 -16 -10 -35 -10 -19 0 -35 4 -35
9 0 12 21 21 38 15 8 -2 18 -4 23 -4z m2667 -1239 c-14 -5 -31 15 -23 29 5 8
11 6 20 -7 9 -11 10 -19 3 -22z m-35 -458 c31 -8 57 -20 57 -24 0 -5 6 -9 13
-9 22 0 38 -39 31 -75 -4 -25 -11 -35 -25 -35 -11 0 -19 -7 -19 -15 0 -8 -4
-15 -9 -15 -6 0 -6 -12 0 -32 13 -46 1 -97 -33 -141 -30 -38 -32 -60 -12 -129
4 -13 -6 -24 -32 -40 -20 -12 -32 -24 -26 -26 7 -2 10 -8 6 -13 -7 -12 -44
-12 -44 1 0 16 -22 12 -35 -6 -11 -15 -14 -15 -37 0 -14 9 -38 16 -54 14 -37
-2 -54 8 -54 32 0 10 -11 28 -24 41 -17 16 -22 27 -15 35 7 8 5 25 -5 49 -9
21 -14 41 -11 45 3 4 -3 7 -12 6 -12 -1 -19 11 -25 38 -7 33 -5 43 12 61 11
12 17 24 14 28 -4 3 2 19 12 34 10 15 17 31 16 36 -4 13 32 7 74 -12 40 -18
178 -25 167 -8 -2 4 -13 7 -24 7 -10 0 -19 7 -19 15 0 8 6 12 13 10 6 -3 26
-1 42 4 28 9 28 9 5 10 -23 1 -23 2 -7 19 17 16 19 16 35 -4 18 -23 82 -38 82
-19 0 6 -7 21 -16 33 -12 17 -25 22 -62 22 -26 0 -63 3 -83 6 -35 6 -36 7 -29
40 4 18 5 36 1 39 -9 10 63 -3 132 -22z m1576 -13 c0 -10 -3 -8 -9 5 -12 27
-12 43 0 25 5 -8 9 -22 9 -30z m-62 -12 c0 -13 -1 -17 -4 -10 -3 6 -11 12 -19
12 -9 0 -12 5 -9 10 11 18 31 10 32 -12z m43 -69 c0 -5 -4 -9 -10 -9 -5 0 -10
7 -10 16 0 8 5 12 10 9 6 -3 10 -10 10 -16z m-90 -14 c0 -8 -7 -15 -15 -15
-26 0 -18 20 13 29 1 1 2 -6 2 -14z m965 -35 c4 -6 10 -8 15 -5 5 3 11 1 15
-5 3 -5 17 -10 31 -10 14 0 23 -3 20 -8 -2 -4 38 -7 90 -6 56 1 94 -2 94 -8 0
-6 7 -8 15 -5 8 4 17 1 21 -4 3 -6 15 -8 26 -5 12 2 27 -1 34 -9 24 -24 12
-25 -301 -39 l-30 -1 -1 -68 c0 -37 2 -70 5 -71 12 -7 137 31 171 52 43 27 65
28 115 2 24 -13 54 -20 75 -18 19 2 36 -1 37 -6 2 -14 26 -26 51 -26 19 0 21
-3 12 -19 -7 -15 -7 -22 2 -27 7 -4 10 -4 6 1 -9 10 30 40 39 31 13 -12 -34
-61 -56 -59 -14 2 -21 -3 -21 -15 0 -9 -7 -26 -16 -37 -10 -14 -14 -43 -13
-108 1 -76 3 -85 15 -70 13 17 13 17 14 -2 0 -21 -39 -45 -72 -45 -10 0 -18
-4 -18 -10 0 -5 11 -10 25 -10 21 0 25 -5 25 -29 0 -62 36 -45 54 25 l12 49
18 -55 c12 -37 14 -56 7 -58 -6 -2 -8 -8 -5 -13 3 -6 0 -16 -6 -24 -14 -17 1
-20 17 -4 6 6 16 10 21 8 6 -2 -5 -12 -24 -21 -19 -10 -33 -14 -31 -9 2 9 -3
11 -22 11 -5 0 -9 -16 -8 -35 1 -19 3 -31 6 -27 8 12 51 22 51 12 0 -19 -37
-35 -84 -36 -28 -1 -50 -5 -50 -10 1 -5 4 -28 8 -50 7 -48 -7 -66 -40 -54 -18
7 -20 15 -16 61 2 32 10 58 19 64 23 17 29 98 9 126 -9 13 -24 24 -34 24 -13
0 -16 7 -14 33 3 33 3 34 -27 27 -43 -9 -56 1 -36 31 16 25 5 34 -14 10 -11
-13 -51 -29 -51 -20 0 3 8 17 17 31 l17 26 -29 -7 c-17 -4 -31 -12 -33 -17 -2
-5 -15 -9 -29 -9 -21 0 -23 -3 -18 -22 11 -34 22 -43 39 -29 36 30 176 -62
176 -115 0 -53 -133 -71 -176 -23 -26 29 -39 23 -54 -21 -14 -43 -30 -38 -30
11 0 14 -4 29 -9 35 -5 5 -14 26 -21 47 -6 20 -15 35 -20 32 -12 -7 -28 17
-25 38 2 9 -2 17 -8 17 -6 0 -1 10 12 21 26 24 21 32 -31 49 -21 6 -38 15 -38
18 0 4 -12 21 -26 37 -25 29 -26 29 -10 3 10 -17 12 -28 6 -28 -17 0 -65 27
-79 44 -8 9 -22 16 -32 16 -31 0 -21 20 19 38 l37 17 -47 3 c-27 2 -48 8 -48
13 0 20 44 48 68 42 16 -4 22 -1 22 11 0 9 -7 16 -15 16 -8 0 -15 7 -15 16 0
9 5 12 12 8 8 -5 9 -2 5 11 -9 21 10 48 27 38 6 -4 5 1 -2 10 -8 9 -11 20 -8
26 7 11 -3 41 -14 41 -4 0 -24 7 -44 15 -33 14 -35 17 -22 31 9 8 32 18 51 21
19 3 35 10 35 15 0 5 16 6 35 2 36 -6 52 11 18 19 -11 2 2 10 32 20 61 19 62
19 70 7z m-335 -24 c0 -2 -7 -7 -16 -10 -8 -3 -12 -2 -9 4 6 10 25 14 25 6z
m-1059 -48 c1 -7 1 -16 0 -20 0 -4 8 -12 19 -18 30 -16 24 -28 -21 -40 -34 -9
-44 -9 -56 3 -21 21 7 87 36 87 12 0 22 -6 22 -12z m1799 -8 c-8 -5 -17 -7
-19 -4 -3 3 1 9 9 14 8 5 17 7 19 4 3 -3 -1 -9 -9 -14z m-670 -51 c0 -5 -9 -9
-20 -9 -22 0 -27 16 -7 23 15 5 27 -1 27 -14z m-45 -49 c-28 -12 -65 -12 -65
0 0 6 19 10 43 9 32 0 37 -2 22 -9z m-637 -41 c-3 -8 -7 -3 -11 10 -4 17 -3
21 5 13 5 -5 8 -16 6 -23z m-21 -11 c-3 -8 -6 -5 -6 6 -1 11 2 17 5 13 3 -3 4
-12 1 -19z m643 6 c17 2 28 0 24 -5 -3 -5 -23 -9 -45 -9 -28 0 -39 -4 -39 -15
0 -9 -8 -28 -17 -42 l-17 -26 69 6 c50 4 61 3 40 -3 -16 -5 -36 -18 -43 -27
-11 -15 -14 -15 -21 -4 -6 10 -19 12 -41 7 -26 -5 -30 -4 -21 7 8 11 5 16 -14
25 -31 14 -31 22 -4 56 27 34 58 47 82 34 10 -5 31 -7 47 -4z m-3055 -14 c3
-5 1 -10 -4 -10 -6 0 -11 5 -11 10 0 6 2 10 4 10 3 0 8 -4 11 -10z m255 -25
c0 -14 -2 -25 -4 -25 -2 0 -6 11 -8 25 -3 14 -1 25 3 25 5 0 9 -11 9 -25z
m2173 -9 c4 -10 1 -13 -8 -9 -8 3 -12 9 -9 14 7 12 11 11 17 -5z m227 -10 c0
-11 -19 -15 -25 -6 -3 5 1 10 9 10 9 0 16 -2 16 -4z m-2592 -57 c4 -21 -23
-42 -58 -46 -27 -2 -28 -1 -27 32 2 34 3 34 42 32 27 -2 41 -8 43 -18z m-145
-4 c-3 -9 -8 -14 -10 -11 -3 3 -2 9 2 15 9 16 15 13 8 -4z m2682 -5 c3 -5 -1
-10 -9 -10 -9 0 -16 5 -16 10 0 6 4 10 9 10 6 0 13 -4 16 -10z m-2328 -52 c-3
-8 -6 -5 -6 6 -1 11 2 17 5 13 3 -3 4 -12 1 -19z m2673 12 c0 -5 -4 -10 -10
-10 -5 0 -10 5 -10 10 0 6 5 10 10 10 6 0 10 -4 10 -10z m-3720 -21 c0 -5 -4
-9 -10 -9 -5 0 -10 7 -10 16 0 8 5 12 10 9 6 -3 10 -10 10 -16z m4660 7 c0 -3
-4 -8 -10 -11 -5 -3 -10 -1 -10 4 0 6 5 11 10 11 6 0 10 -2 10 -4z m0 -123 c0
-12 -5 -25 -11 -29 -7 -4 -10 -1 -7 7 3 8 -1 27 -9 42 -13 27 -13 27 7 15 11
-7 20 -23 20 -35z m-972 -130 c4 -40 -17 -44 -48 -11 -30 33 -26 50 13 46 28
-3 32 -7 35 -35z m1027 -103 c-3 -5 -11 -10 -16 -10 -6 0 -7 5 -4 10 3 6 11
10 16 10 6 0 7 -4 4 -10z m-295 -139 c0 -10 7 -21 15 -25 10 -3 15 1 15 11 0
14 4 12 24 -6 29 -27 45 -125 27 -160 -16 -29 -23 -27 -51 18 -13 22 -26 38
-29 36 -4 -2 -7 15 -9 38 -2 27 -11 49 -27 65 -33 32 -31 42 5 42 23 0 30 -5
30 -19z m-30 -112 c0 -11 -60 -69 -71 -69 -14 0 -11 20 4 21 9 0 9 2 -1 6 -9
4 -6 14 12 38 20 25 22 35 13 46 -7 8 0 3 16 -10 15 -14 27 -28 27 -32z m-140
-80 c-7 -11 -14 -18 -17 -15 -8 8 5 36 17 36 7 0 7 -6 0 -21z m-150 -9 c0 -5
-2 -10 -4 -10 -3 0 -8 5 -11 10 -3 6 -1 10 4 10 6 0 11 -4 11 -10z m165 -117
c16 -70 23 -239 11 -251 -3 -3 -12 1 -21 8 -12 10 -22 7 -57 -19 -23 -17 -46
-31 -50 -31 -18 0 -6 54 18 83 23 27 25 36 19 86 -12 109 -9 139 19 176 15 20
31 33 36 30 4 -3 16 -40 25 -82z m185 68 c0 -6 -4 -12 -8 -15 -5 -3 -9 1 -9 9
0 8 4 15 9 15 4 0 8 -4 8 -9z m-320 -37 c13 -34 13 -34 -10 -34 -11 0 -20 6
-20 14 0 8 -3 21 -6 30 -4 11 -1 16 10 16 9 0 21 -12 26 -26z m-525 -4 c96
-17 105 -20 105 -30 0 -6 -11 -10 -25 -10 -32 0 -32 -16 0 -24 16 -4 22 -11
19 -21 -4 -9 2 -18 17 -24 l24 -10 -27 0 c-36 -1 -44 -17 -13 -25 40 -10 29
-24 -25 -31 -27 -4 -52 -11 -56 -16 -7 -12 -24 -11 -24 1 0 6 11 15 25 20 32
12 32 30 0 30 -33 0 -82 -22 -120 -54 -23 -20 -27 -28 -17 -38 22 -22 14 -37
-22 -36 -30 1 -33 4 -32 28 2 44 49 90 98 96 24 3 44 7 47 9 6 6 -47 25 -70
25 -10 0 -19 5 -19 10 0 6 9 10 20 10 11 0 20 5 20 10 0 6 -9 10 -20 10 -11 0
-20 5 -20 10 0 6 9 10 20 10 11 0 20 5 20 10 0 6 -13 10 -30 10 -26 0 -29 3
-26 23 3 12 5 23 5 24 1 3 61 -5 126 -17z m908 -64 c3 -9 -4 -21 -19 -30 -20
-14 -24 -14 -24 -2 0 40 31 63 43 32z m-2534 -33 c-24 -31 -39 -45 -39 -37 0
8 41 54 48 54 2 0 -2 -8 -9 -17z m2175 -5 c20 -28 21 -68 2 -68 -19 0 -32 19
-41 58 -5 25 -3 32 9 32 8 0 22 -10 30 -22z m386 -2 c0 -3 -4 -8 -10 -11 -5
-3 -10 -1 -10 4 0 6 5 11 10 11 6 0 10 -2 10 -4z m-1199 -69 c-8 -8 -11 -6
-11 6 0 9 -5 17 -10 17 -6 0 -10 -10 -9 -22 3 -39 -1 -58 -12 -58 -6 0 -8 10
-5 23 5 18 4 18 -5 -3 -6 -14 -15 -35 -20 -47 -6 -16 -13 -21 -26 -16 -9 4
-12 8 -6 10 6 2 9 13 6 23 -4 14 0 20 11 20 14 0 16 7 11 33 -5 28 -1 35 27
53 l33 20 13 -24 c10 -17 11 -27 3 -35z m1283 54 c10 -16 -28 -53 -47 -46 -21
9 -22 19 -1 39 17 18 40 21 48 7z m-97 -33 c-3 -8 -6 -5 -6 6 -1 11 2 17 5 13
3 -3 4 -12 1 -19z m-2607 -28 c0 -5 -4 -10 -10 -10 -5 0 -10 5 -10 10 0 6 5
10 10 10 6 0 10 -4 10 -10z m2633 -47 c-7 -2 -9 -11 -6 -19 3 -8 -1 -14 -10
-14 -18 0 -30 -27 -16 -36 6 -3 3 -11 -7 -18 -9 -7 -14 -18 -10 -24 4 -7 2
-12 -4 -12 -20 0 -23 31 -7 65 9 18 19 50 23 70 l7 37 21 -22 c14 -15 17 -24
9 -27z m-83 -2 c0 -12 -29 -41 -40 -41 -5 0 -12 5 -15 10 -3 6 3 10 14 10 12
0 21 7 21 15 0 8 5 15 10 15 6 0 10 -4 10 -9z m-840 -66 c0 -16 -9 -19 -35 -9
-13 5 -14 8 -3 15 20 13 38 11 38 -6z m808 -32 c-2 -17 2 -28 9 -28 6 0 15 -3
19 -7 4 -5 -2 -8 -14 -8 -12 0 -22 -4 -22 -10 0 -14 -13 -13 -34 3 -18 13 -18
15 4 35 12 11 19 25 15 31 -3 6 1 11 10 11 12 0 16 -7 13 -27z m-936 -55 c-1
-29 -3 -71 -5 -93 -3 -21 0 -47 7 -57 8 -13 8 -23 -2 -38 -6 -11 -12 -24 -12
-30 0 -17 -34 -50 -52 -50 -27 0 -21 -19 10 -32 36 -16 38 -18 25 -26 -6 -4
-13 -20 -16 -36 -2 -16 -12 -35 -22 -42 -24 -17 -61 -18 -68 -1 -8 21 1 70 15
78 10 6 10 11 1 20 -9 9 -6 18 13 38 53 55 75 129 75 250 0 41 3 79 6 84 12
20 25 -15 25 -65z m758 53 c0 -11 -4 -23 -10 -26 -6 -4 -10 5 -10 19 0 14 5
26 10 26 6 0 10 -9 10 -19z m-640 -37 c-10 -11 -60 -7 -60 5 0 4 16 7 35 7 25
0 31 -3 25 -12z m775 -34 c-3 -5 -12 -10 -18 -10 -7 0 -6 4 3 10 19 12 23 12
15 0z m-539 -84 c-3 -34 -5 -67 -6 -73 0 -7 -5 -13 -10 -13 -6 0 -8 11 -4 25
4 17 1 27 -9 31 -15 6 -13 38 5 61 5 7 6 22 2 35 -6 21 -5 21 10 9 14 -12 16
-26 12 -75z m264 34 c0 -20 -5 -30 -15 -30 -18 0 -19 14 -5 41 15 27 20 24 20
-11z m-903 -5 c0 -8 -4 -15 -9 -15 -4 0 -8 7 -8 15 0 8 4 15 8 15 5 0 9 -7 9
-15z m1333 -25 c0 -5 -5 -10 -11 -10 -5 0 -7 5 -4 10 3 6 8 10 11 10 2 0 4 -4
4 -10z m-332 -44 c5 -38 -4 -57 -23 -50 -15 6 -22 64 -8 78 13 13 28 -1 31
-28z m164 -23 c-5 -28 -5 -28 14 -8 10 11 16 16 12 11 -5 -6 -8 -20 -8 -33 0
-13 -4 -23 -9 -23 -4 0 -6 -11 -3 -25 3 -20 1 -24 -11 -19 -10 3 -20 -3 -27
-16 -13 -25 -4 -42 10 -20 8 13 10 12 10 -2 0 -24 -12 -28 -34 -13 -14 11 -16
20 -10 47 4 18 8 40 9 48 0 9 9 27 18 40 9 14 17 30 17 38 0 7 4 11 9 8 4 -3
6 -18 3 -33z m-717 -3 c14 -6 5 -9 -35 -9 -39 -1 -51 2 -40 9 18 12 48 12 75
0z m-97 -22 c-2 -6 6 -14 17 -16 35 -7 37 -19 3 -15 -55 7 -62 11 -48 28 15
18 31 20 28 3z m148 -35 c-10 -10 -19 5 -10 18 6 11 8 11 12 0 2 -7 1 -15 -2
-18z m-605 -34 c-5 -13 -10 -19 -10 -12 -1 15 10 45 15 40 3 -2 0 -15 -5 -28z
m547 -5 c-4 -3 -12 5 -18 18 -12 22 -12 22 6 6 10 -10 15 -20 12 -24z m530 -3
c3 -24 0 -32 -10 -29 -7 3 -14 19 -16 37 -3 24 0 32 10 29 7 -3 14 -19 16 -37z
m477 10 c-3 -17 -2 -32 4 -36 15 -9 14 -55 -1 -55 -13 0 -23 82 -13 108 9 24
17 12 10 -17z m-1104 -35 c-16 -16 -21 -33 -19 -52 4 -26 5 -27 13 -9 33 77
62 75 39 -3 -20 -64 -19 -71 27 -167 22 -48 39 -89 37 -91 -7 -6 -48 8 -48 17
0 5 -12 6 -27 3 -23 -5 -26 -4 -15 7 17 18 15 32 -3 25 -11 -4 -15 0 -13 12 2
13 -3 17 -26 15 -28 -2 -28 -2 -10 19 19 20 19 21 -3 35 -28 19 -28 26 -1 110
20 63 55 120 66 108 3 -3 -5 -16 -17 -29z m-467 -23 c-6 -25 -24 -56 -24 -41
0 10 22 68 26 68 2 0 1 -12 -2 -27z m996 -12 c0 -5 -11 -18 -25 -29 -33 -26
-32 -61 2 -121 25 -45 27 -81 4 -81 -15 0 -61 101 -61 135 0 17 7 42 16 55 28
41 64 64 64 41z m78 -42 c-13 -38 -34 -37 -42 2 -8 41 0 51 28 37 21 -9 23
-14 14 -39z m282 42 c0 -12 -20 -25 -27 -18 -7 7 6 27 18 27 5 0 9 -4 9 -9z
m-831 -32 c-13 -26 -23 -18 -14 10 3 12 11 19 16 16 5 -4 5 -14 -2 -26z m116
-49 c3 -5 -3 -10 -14 -10 -11 0 -23 -5 -26 -10 -5 -8 -11 -7 -21 1 -11 9 -18
9 -26 1 -8 -8 -6 -13 9 -19 36 -14 93 -72 93 -94 0 -19 -9 -13 -56 35 -33 34
-62 55 -70 52 -20 -8 -17 24 4 40 20 16 98 19 107 4z m570 0 c3 -5 1 -10 -4
-10 -6 0 -11 5 -11 10 0 6 2 10 4 10 3 0 8 -4 11 -10z m16 -51 c-8 -19 -10
-20 -10 -5 -1 12 -6 16 -16 12 -22 -8 -18 3 8 24 26 21 34 8 18 -31z m-181 14
c0 -11 -22 -43 -30 -43 -11 0 -23 37 -16 49 6 9 46 4 46 -6z m535 -52 c7 -31
-14 -129 -24 -112 -4 6 -6 23 -5 38 1 15 3 45 3 66 1 44 17 49 26 8z m-1275
-56 c0 -6 -50 -55 -57 -55 -7 0 17 31 37 47 17 14 20 15 20 8z m364 -26 c-3
-6 0 -15 7 -20 9 -6 10 -9 2 -9 -15 0 -26 17 -18 30 3 6 8 10 11 10 3 0 2 -5
-2 -11z m-359 -39 c-10 -11 -20 -18 -23 -15 -3 3 3 14 13 25 10 11 20 18 23
15 3 -3 -3 -14 -13 -25z m1016 0 c-12 -11 -28 -17 -33 -14 -5 4 1 12 14 19 35
20 46 17 19 -5z m-1081 -4 c0 -3 -4 -8 -10 -11 -5 -3 -10 -1 -10 4 0 6 5 11
10 11 6 0 10 -2 10 -4z m351 -22 c8 -8 33 -20 55 -28 l39 -14 -26 -12 c-21
-10 -31 -9 -58 7 -18 10 -32 22 -32 26 1 4 -8 17 -21 27 l-23 19 25 -6 c14 -3
32 -12 41 -19z m679 6 c0 -5 -5 -10 -11 -10 -5 0 -7 5 -4 10 3 6 8 10 11 10 2
0 4 -4 4 -10z m-951 -42 c-8 -14 -14 -18 -17 -10 -4 13 17 46 25 38 3 -2 -1
-15 -8 -28z m1241 12 c-9 -6 -9 -9 1 -12 8 -3 10 -9 6 -14 -11 -11 -27 15 -20
33 3 7 10 10 15 7 6 -4 6 -9 -2 -14z m-1203 -15 c-10 -24 11 -27 32 -3 12 12
21 18 21 14 0 -11 -42 -70 -57 -79 -7 -4 -10 -14 -6 -23 5 -13 8 -13 29 1 13
8 24 11 24 6 0 -5 -9 -13 -20 -16 -11 -4 -18 -11 -15 -16 10 -15 -12 -10 -25
6 -10 12 -15 13 -21 4 -4 -7 -14 -9 -25 -4 -15 6 -16 8 -4 13 20 7 41 29 38
39 -3 12 20 73 28 73 3 0 4 -7 1 -15z m101 -84 c-7 -12 -16 -21 -21 -21 -4 0
0 11 9 25 20 30 31 26 12 -4z m1108 7 c-3 -13 -6 -35 -6 -50 0 -16 -3 -28 -7
-28 -5 0 -8 23 -8 50 -1 37 3 50 13 50 10 0 12 -7 8 -22z m-1376 -8 c0 -5 -4
-10 -10 -10 -5 0 -10 5 -10 10 0 6 5 10 10 10 6 0 10 -4 10 -10z m-256 -16 c3
-8 2 -12 -4 -9 -6 3 -10 10 -10 16 0 14 7 11 14 -7z m336 0 c0 -2 -9 -4 -21
-4 -11 0 -18 4 -14 10 5 8 35 3 35 -6z m-413 -192 c-14 -59 -40 -170 -57 -247
-49 -217 -49 -218 -85 -191 -18 13 -18 15 -1 49 9 20 21 74 27 119 6 46 26
124 44 173 18 50 39 108 45 130 7 22 20 56 29 75 26 58 26 10 -2 -108z m443
114 c0 -6 11 -20 25 -30 14 -10 25 -23 25 -28 0 -5 -10 1 -22 13 -13 12 -36
27 -53 35 -16 7 -24 13 -17 14 7 0 11 4 8 9 -4 5 3 7 14 4 11 -3 20 -10 20
-17z m76 -14 c-4 -3 -14 2 -24 12 -16 18 -16 18 6 6 13 -6 21 -14 18 -18z m58
12 c3 -8 2 -12 -4 -9 -6 3 -10 10 -10 16 0 14 7 11 14 -7z m-199 -68 c11 -14
25 -22 34 -19 9 3 -1 -6 -21 -21 -43 -30 -54 -32 -74 -11 -16 15 -13 26 14 58
20 22 26 22 47 -7z m971 -38 c-10 -51 -79 -108 -130 -108 -28 0 -34 -18 -14
-38 20 -20 48 -14 88 18 41 33 84 40 78 14 -2 -8 -43 -36 -91 -61 l-88 -45
-51 21 c-59 24 -86 26 -112 6 -24 -18 -12 -39 15 -25 11 6 24 8 29 5 21 -13 9
-33 -30 -50 -40 -18 -40 -18 -65 5 -14 13 -25 29 -25 35 0 12 84 98 94 96 3
-1 24 -8 47 -17 49 -17 56 -13 41 20 -10 22 -7 28 24 56 26 23 41 29 57 24 37
-11 40 -10 48 22 9 31 38 52 73 53 16 1 18 -4 12 -31z m-717 3 c7 -5 10 -14 6
-21 -6 -9 -9 -9 -16 1 -7 11 -9 9 -10 -6 l0 -20 -8 20 c-13 32 0 44 28 26z
m-109 -21 c0 -5 -2 -10 -4 -10 -3 0 -8 5 -11 10 -3 6 -1 10 4 10 6 0 11 -4 11
-10z m950 -36 c8 -20 6 -31 -10 -51 -28 -35 -25 -40 18 -39 31 1 38 -3 40 -21
3 -17 -1 -20 -18 -16 -22 6 -128 -23 -145 -40 -7 -6 4 -8 33 -4 39 5 44 3 53
-20 16 -42 11 -62 -21 -78 -42 -22 -65 -19 -79 12 -9 20 -9 28 0 33 31 20 -25
40 -65 24 -20 -8 -21 -24 -1 -24 14 0 16 -7 19 -74 1 -27 -60 -44 -82 -23 -19
20 -8 35 22 30 26 -5 39 7 30 30 -7 18 -125 50 -138 37 -16 -16 1 -39 24 -33
35 9 21 -28 -17 -43 -28 -12 -34 -11 -57 7 -35 28 -33 47 12 86 41 36 50 38
85 22 20 -9 37 -4 114 34 108 54 172 107 128 107 -20 0 -19 29 2 52 23 25 42
23 53 -8z m-995 -31 c-3 -9 0 -20 7 -24 8 -5 4 -8 -12 -7 -14 1 -33 8 -43 16
-16 14 -16 17 -1 33 13 14 21 16 36 8 12 -7 17 -16 13 -26z m485 -30 c-1 -14
-30 -47 -36 -41 -6 7 17 48 28 48 5 0 8 -3 8 -7z m730 -28 c0 -8 -7 -15 -15
-15 -26 0 -18 20 13 29 1 1 2 -6 2 -14z m-177 -97 c6 -3 12 -16 14 -27 2 -17
-2 -21 -26 -21 -24 0 -29 5 -35 31 -8 40 12 70 27 42 6 -10 15 -21 20 -25z
m-858 13 c-3 -6 -11 -11 -16 -11 -5 0 -4 6 3 14 14 16 24 13 13 -3z m-62 -59
c5 -1 5 -6 2 -12 -3 -5 -1 -10 4 -10 6 0 21 -10 34 -22 27 -28 32 -106 7 -104
-10 1 -14 -7 -13 -20 2 -15 -3 -21 -15 -20 -12 1 -16 -5 -14 -20 4 -30 -20
-69 -43 -69 -15 0 -20 -7 -20 -27 1 -16 -5 -28 -12 -28 -7 0 -13 7 -13 15 0 8
-4 15 -10 15 -5 0 -10 -11 -10 -25 0 -14 -5 -25 -10 -25 -6 0 -16 -12 -22 -26
-9 -20 -9 -27 1 -33 9 -6 10 -11 2 -15 -6 -4 -11 -2 -11 3 0 6 -9 11 -20 11
-11 0 -20 6 -20 14 0 8 -8 17 -17 20 -10 4 -29 15 -43 25 -21 17 -22 21 -10
37 12 13 12 18 3 21 -21 7 -15 33 7 33 16 0 18 4 11 22 -4 13 -5 36 0 51 4 16
4 39 -2 53 -5 14 -9 29 -9 33 0 12 35 21 105 27 58 5 103 24 57 24 -31 0 -27
16 6 28 l27 10 -25 2 c-23 1 -23 2 -5 9 17 7 50 8 78 3z m351 -136 c56 -75 73
-92 83 -82 3 3 -12 29 -34 58 -58 77 -59 78 -24 78 27 0 34 -6 61 -60 17 -33
37 -60 45 -60 16 0 20 21 6 36 -4 5 -11 21 -15 37 -6 25 -4 27 23 27 16 0 32
-3 34 -7 3 -5 6 -35 8 -68 4 -54 2 -61 -18 -70 -24 -10 -31 -25 -13 -25 16 0
11 -27 -6 -34 -25 -10 -31 -7 -37 16 -5 18 -8 19 -22 8 -22 -18 -45 -76 -45
-111 0 -16 11 -52 25 -81 23 -48 24 -52 7 -64 -9 -8 -25 -16 -34 -19 -10 -4
-18 -11 -18 -16 0 -6 -4 -8 -9 -5 -5 3 -22 -1 -37 -9 -37 -19 -48 -19 -64 0
-19 22 -8 28 67 34 93 8 98 31 6 31 -76 0 -132 26 -133 63 0 10 69 9 110 -3
20 -6 38 -6 43 -1 12 12 -16 26 -83 40 -55 12 -90 34 -90 56 0 14 50 6 87 -13
30 -16 53 -15 53 3 0 16 -56 48 -105 59 -35 9 -55 24 -55 41 0 36 71 22 127
-24 38 -31 67 -39 78 -21 3 5 -7 17 -22 27 -15 9 -44 31 -64 48 -20 16 -46 38
-57 47 -23 19 -28 43 -13 67 7 10 26 -3 81 -58 39 -39 76 -69 82 -65 8 5 -30
56 -63 84 -10 8 -49 88 -49 100 0 29 35 2 84 -64z m460 40 c-3 -7 -16 -19 -30
-26 -27 -15 -32 -30 -9 -30 8 0 33 18 56 41 24 24 46 38 55 35 22 -8 17 -22
-17 -50 -36 -30 -89 -60 -89 -50 0 4 -9 -1 -20 -11 -18 -16 -23 -17 -48 -5
-15 8 -29 15 -32 16 -3 2 -12 -1 -19 -5 -17 -11 7 -51 26 -44 9 4 11 0 7 -11
-8 -20 -14 -20 -42 0 -41 29 -27 59 53 115 67 45 122 58 109 25z m-1548 -99
l26 -23 -11 -90 c-16 -123 -31 -186 -45 -181 -12 4 -28 75 -45 194 -10 69 -10
74 12 97 28 30 31 31 63 3z m471 -9 c-3 -7 -5 -2 -5 12 0 14 2 19 5 13 2 -7 2
-19 0 -25z m917 -69 c33 -26 33 -52 -1 -84 -46 -43 -82 -59 -109 -46 -32 14
-30 33 3 29 15 -2 28 2 30 10 3 6 0 12 -5 12 -33 0 -16 75 20 90 32 12 32 12
62 -11z m-154 -84 c0 -3 -8 -18 -17 -32 -10 -15 -16 -37 -15 -50 3 -18 0 -22
-13 -17 -21 8 -14 58 12 86 15 17 33 24 33 13z"/>
<path d="M5742 3341 c-18 -3 -32 -10 -31 -16 7 -36 13 -45 30 -45 11 0 19 7
19 16 0 8 4 13 9 10 11 -7 24 25 14 34 -4 3 -23 4 -41 1z"/>
<path d="M5690 3221 c-20 -16 -22 -21 -11 -35 14 -17 36 -12 25 6 -5 7 -2 9 7
6 8 -2 22 3 31 13 14 15 15 18 1 23 -21 9 -25 8 -53 -13z"/>
<path d="M6196 3214 c-10 -9 -24 -13 -37 -9 -24 8 -59 -19 -59 -45 0 -24 25
-56 34 -42 10 16 51 15 65 -2 8 -9 8 -21 2 -39 -10 -27 -6 -37 16 -37 11 0 14
19 11 95 -2 52 -6 95 -10 95 -4 0 -14 -7 -22 -16z"/>
<path d="M5937 3196 c-30 -28 -66 -39 -84 -25 -6 6 -17 8 -23 4 -17 -10 31
-34 49 -25 16 8 82 -12 118 -35 12 -8 31 -35 41 -59 26 -57 38 -63 57 -27 21
41 19 56 -9 69 -27 12 -42 57 -25 78 16 20 -10 19 -39 -2 -25 -17 -42 -11 -42
16 0 29 -15 32 -43 6z"/>
<path d="M6194 3005 c-18 -13 -18 -15 8 -41 l27 -28 -6 40 c-7 48 -6 47 -29
29z"/>
<path d="M6005 660 c3 -5 10 -10 16 -10 5 0 9 5 9 10 0 6 -7 10 -16 10 -8 0
-12 -4 -9 -10z"/>
<path d="M5196 608 c5 -8 1 -9 -12 -4 -14 5 -16 4 -7 -4 7 -8 17 -9 28 -3 16
9 16 10 1 16 -12 5 -15 3 -10 -5z"/>
<path d="M5823 348 c-12 -15 -13 -48 -3 -48 17 0 31 29 23 45 -8 13 -11 14
-20 3z"/>
<path d="M4560 6386 c0 -9 7 -12 20 -9 13 3 20 0 20 -8 0 -11 2 -11 10 1 16
24 12 30 -20 30 -19 0 -30 -5 -30 -14z"/>
<path d="M6250 6381 c-5 -11 -20 -21 -32 -23 -18 -2 -22 -8 -20 -27 4 -28 -16
-71 -33 -71 -24 0 -80 -76 -103 -139 -19 -51 -25 -89 -27 -165 l-2 -99 86 -86
c70 -71 102 -95 173 -129 47 -23 91 -42 97 -42 8 0 11 57 11 185 0 141 -3 185
-12 185 -9 0 -8 4 2 10 10 6 11 10 3 10 -7 0 -13 5 -13 11 0 5 5 7 10 4 15 -9
12 44 -3 59 -7 7 -18 11 -26 8 -9 -3 -11 0 -7 7 4 7 16 9 27 6 15 -5 19 -1 19
19 0 16 -6 26 -14 26 -8 0 -17 11 -20 24 -3 13 -9 31 -12 40 -4 10 -1 16 9 16
8 0 18 -10 22 -22 4 -15 8 -18 12 -10 8 21 -27 53 -51 47 -20 -6 -20 -6 -2 9
17 13 17 18 5 33 -8 10 -20 22 -27 26 -7 5 -10 12 -7 18 11 16 31 9 45 -15 7
-14 19 -27 26 -30 19 -7 18 -3 -11 30 -29 33 -31 44 -10 44 8 0 15 7 15 15 0
8 5 15 10 15 6 0 10 7 10 15 0 10 -10 15 -27 15 -37 0 -55 -13 -47 -33 8 -21
-18 -23 -35 -4 -8 10 -7 17 1 25 9 9 7 12 -10 12 -12 0 -26 -9 -32 -19z m48
-49 c2 -7 -3 -12 -12 -12 -9 0 -16 7 -16 16 0 17 22 14 28 -4z m26 -58 c10
-27 7 -36 -14 -29 -27 9 -25 -5 6 -38 21 -22 22 -28 10 -33 -13 -5 -13 -10 -4
-27 6 -12 16 -25 22 -29 6 -4 7 -10 2 -15 -4 -4 -12 0 -18 10 -8 14 -13 16
-24 6 -13 -11 -48 -8 -86 6 -13 5 -18 2 -18 -9 0 -9 7 -16 15 -16 8 0 15 -7
15 -16 0 -9 -5 -13 -12 -10 -7 3 -21 9 -30 12 -19 7 -25 24 -8 24 20 0 9 26
-17 43 -31 20 -13 19 43 -4 40 -16 72 -6 54 17 -10 11 -10 18 -2 26 17 17 15
34 -5 54 -16 16 -16 16 5 10 18 -6 22 -3 22 13 0 25 35 29 44 5z m-124 -84 c0
-5 -4 -10 -10 -10 -5 0 -10 5 -10 10 0 6 5 10 10 10 6 0 10 -4 10 -10z m30
-10 c0 -5 -2 -10 -4 -10 -3 0 -8 5 -11 10 -3 6 -1 10 4 10 6 0 11 -4 11 -10z
m99 -94 c-9 -10 -59 -18 -59 -9 0 13 44 30 54 21 5 -4 8 -10 5 -12z m-98 -43
c24 -13 29 -18 17 -21 -20 -4 -58 15 -58 28 0 13 1 13 41 -7z m99 -48 c0 -8
-7 -15 -15 -15 -8 0 -15 7 -15 15 0 8 7 15 15 15 8 0 15 -7 15 -15z m-100 -5
c0 -5 -7 -10 -15 -10 -8 0 -15 5 -15 10 0 6 7 10 15 10 8 0 15 -4 15 -10z m51
-10 c5 0 9 -4 9 -9 0 -4 -11 -6 -25 -3 -14 2 -25 9 -25 14 0 6 7 7 16 4 9 -3
20 -6 25 -6z m-25 -42 c4 -5 -6 -8 -22 -6 -15 2 -29 8 -31 14 -5 14 44 6 53
-8z m-133 -105 c-7 -2 -19 -2 -25 0 -7 3 -2 5 12 5 14 0 19 -2 13 -5z m47 -3
c0 -5 -4 -10 -10 -10 -5 0 -10 5 -10 10 0 6 5 10 10 10 6 0 10 -4 10 -10z m24
-35 c4 -10 -1 -15 -14 -15 -11 0 -20 7 -20 15 0 8 6 15 14 15 8 0 16 -7 20
-15z m81 -42 c19 -9 35 -20 35 -25 0 -11 -2 -10 -44 7 -20 8 -36 20 -36 25 0
13 3 13 45 -7z"/>
<path d="M5474 6343 c-25 -27 -27 -44 -6 -51 7 -2 12 3 12 12 0 21 17 20 28
-1 8 -13 11 -11 17 15 12 56 -11 68 -51 25z"/>
<path d="M4550 6315 c-10 -13 -9 -15 8 -15 15 0 20 5 16 15 -4 8 -7 15 -9 15
-1 0 -8 -7 -15 -15z"/>
<path d="M5350 6221 c-12 -17 -32 -33 -43 -37 -37 -12 -52 -33 -39 -55 7 -10
12 -27 12 -36 0 -16 -2 -16 -11 -3 -8 12 -10 12 -7 1 4 -13 21 -16 83 -12 8 1
15 8 15 16 0 8 4 15 9 15 5 0 13 9 16 20 4 13 15 20 31 20 29 0 32 20 5 37
-11 7 -21 22 -23 34 -5 33 -22 33 -48 0z"/>
<path d="M5351 6044 c0 -11 3 -14 6 -6 3 7 2 16 -1 19 -3 4 -6 -2 -5 -13z"/>
<path d="M1821 5668 c-1 -10 6 -18 14 -18 8 0 15 8 15 18 0 13 -2 14 -9 3 -7
-11 -9 -11 -14 0 -4 10 -6 9 -6 -3z"/>
<path d="M2020 5590 c-21 -5 -25 -12 -23 -40 1 -18 6 -36 13 -40 15 -9 60 -7
60 3 0 4 0 17 0 30 0 36 -21 55 -50 47z"/>
<path d="M3313 5543 c9 -2 23 -2 30 0 6 3 -1 5 -18 5 -16 0 -22 -2 -12 -5z"/>
<path d="M5600 5524 c0 -8 9 -14 20 -14 11 0 20 4 20 9 0 5 -9 11 -20 14 -13
3 -20 0 -20 -9z"/>
<path d="M2265 5470 c-3 -5 -1 -10 4 -10 6 0 11 5 11 10 0 6 -2 10 -4 10 -3 0
-8 -4 -11 -10z"/>
<path d="M2357 5423 c-4 -3 -7 -15 -7 -25 0 -16 6 -19 42 -16 49 4 58 18 21
36 -30 14 -46 15 -56 5z"/>
<path d="M2036 5392 c-11 -18 7 -83 26 -93 33 -18 43 3 27 55 -9 32 -19 46
-31 46 -9 0 -19 -4 -22 -8z"/>
<path d="M4950 5344 c0 -8 5 -12 10 -9 6 3 10 10 10 16 0 5 -4 9 -10 9 -5 0
-10 -7 -10 -16z"/>
<path d="M5466 5321 c-3 -5 1 -11 9 -15 8 -3 15 -1 15 4 0 13 -18 22 -24 11z"/>
<path d="M30 5291 c0 -12 -6 -21 -15 -21 -12 0 -15 -14 -15 -68 0 -60 2 -68
22 -77 13 -6 27 -20 33 -32 11 -26 46 -31 65 -8 9 11 9 22 1 45 -8 25 -7 32 4
37 8 3 22 3 30 -1 17 -6 55 26 55 48 0 7 -7 19 -15 26 -8 6 -13 22 -12 33 2
20 -3 22 -58 22 -33 1 -68 5 -77 9 -14 6 -18 4 -18 -13z m85 -37 c0 -12 -32
-17 -53 -9 -15 6 -15 8 3 15 25 9 50 6 50 -6z"/>
<path d="M5254 5294 c3 -9 6 -19 6 -24 0 -5 16 -25 35 -45 29 -32 39 -36 62
-30 28 7 28 7 6 16 -13 4 -23 15 -23 22 0 8 -16 25 -35 38 -19 13 -35 27 -35
32 0 4 -5 7 -11 7 -6 0 -8 -7 -5 -16z"/>
<path d="M4020 5270 c-8 -5 -11 -12 -7 -16 4 -4 13 -2 19 4 15 15 7 24 -12 12z"/>
<path d="M3759 5231 c5 -9 8 -20 8 -26 -1 -5 12 -11 29 -12 17 0 71 -23 120
-51 140 -77 447 -232 461 -232 5 0 21 -11 37 -25 16 -14 35 -25 41 -25 24 0
290 -125 321 -151 7 -6 23 -9 36 -7 20 3 15 8 -32 36 -30 17 -60 32 -67 32
-23 0 -198 99 -198 112 0 7 -16 15 -35 19 -29 5 -347 155 -400 189 -16 10 -85
44 -162 79 -26 11 -51 27 -55 34 -9 15 -32 25 -80 37 -28 7 -31 6 -24 -9z"/>
<path d="M1122 5212 c-18 -2 -36 -10 -39 -18 -4 -11 -9 -12 -18 -4 -21 17 -79
-2 -83 -27 -5 -31 43 -40 78 -14 17 12 36 18 49 14 14 -3 23 0 27 12 4 9 16
20 27 24 27 10 3 18 -41 13z"/>
<path d="M5380 5180 c0 -5 5 -10 10 -10 6 0 10 5 10 10 0 6 -4 10 -10 10 -5 0
-10 -4 -10 -10z"/>
<path d="M1300 5171 c0 -4 11 -6 25 -3 14 2 25 6 25 8 0 2 -11 4 -25 4 -14 0
-25 -4 -25 -9z"/>
<path d="M2080 5145 c0 -2 15 -12 33 -21 l32 -17 -19 22 c-17 19 -46 29 -46
16z"/>
<path d="M1187 5083 c-3 -5 -8 -32 -12 -61 -6 -44 -11 -53 -31 -58 -13 -3 -24
-10 -24 -14 0 -16 30 -32 47 -25 17 6 17 7 1 19 -15 11 -15 13 2 24 11 6 26 9
35 6 24 -10 47 14 35 36 -6 10 -10 32 -10 49 0 24 -4 31 -19 31 -11 0 -22 -3
-24 -7z"/>
<path d="M0 5030 c0 -11 2 -20 5 -20 2 0 9 9 15 20 9 16 8 20 -5 20 -8 0 -15
-9 -15 -20z"/>
<path d="M706 4843 c23 -21 31 -26 136 -88 75 -44 120 -63 66 -27 -14 9 -47
32 -73 50 -25 17 -48 32 -51 32 -3 0 -22 11 -42 25 -42 29 -66 34 -36 8z"/>
<path d="M0 4802 c0 -32 4 -39 29 -49 39 -14 45 -6 21 25 -11 13 -20 33 -20
43 0 11 -7 19 -15 19 -11 0 -15 -11 -15 -38z"/>
<path d="M960 4682 c0 -12 19 -26 26 -19 2 2 -2 10 -11 17 -9 8 -15 8 -15 2z"/>
<path d="M4960 4630 c14 -11 31 -20 39 -20 19 0 112 -51 134 -72 10 -10 28
-18 40 -18 12 0 42 -11 67 -24 25 -13 56 -27 70 -31 23 -7 23 -6 -6 19 -18 14
-38 26 -45 26 -8 0 -76 32 -152 70 -138 70 -199 90 -147 50z"/>
<path d="M1066 4602 c17 -15 44 -35 60 -44 43 -25 68 -42 74 -49 3 -3 33 -25
68 -48 34 -24 62 -48 62 -52 0 -5 6 -9 13 -9 8 0 47 -25 87 -55 40 -30 80 -55
87 -55 7 0 21 -9 31 -21 9 -11 29 -27 45 -35 15 -8 27 -23 27 -34 0 -15 7 -20
28 -20 15 0 43 -12 62 -28 19 -16 50 -34 68 -41 17 -8 32 -17 32 -21 0 -4 14
-14 32 -21 17 -7 51 -28 75 -46 24 -18 47 -33 52 -33 5 0 16 -6 23 -12 7 -7
27 -20 43 -28 17 -8 59 -36 94 -62 66 -49 84 -58 75 -35 -2 7 -24 23 -47 35
-41 22 -147 93 -257 173 -54 39 -133 92 -232 155 -27 17 -59 41 -72 53 -12 11
-26 21 -30 21 -5 0 -22 11 -40 26 -48 39 -242 164 -255 164 -6 0 -11 4 -11 8
0 13 -196 142 -215 142 -5 -1 4 -13 21 -28z"/>
<path d="M610 4554 c-36 -14 -69 -29 -75 -33 -5 -5 -53 -20 -105 -36 -52 -15
-110 -33 -128 -41 -18 -8 -53 -14 -77 -14 -25 0 -45 -4 -45 -9 0 -5 -17 -12
-37 -16 -93 -16 -143 -36 -143 -56 0 -10 2 -19 3 -19 2 0 39 9 83 21 132 35
198 51 219 54 52 7 139 35 154 49 10 9 28 16 42 16 28 0 94 22 147 49 21 10
49 21 65 25 33 8 35 21 5 30 -32 8 -35 8 -108 -20z"/>
<path d="M1506 4173 c-11 -11 -6 -23 9 -23 8 0 15 4 15 9 0 13 -16 22 -24 14z"/>
<path d="M2 3921 c4 -12 113 -106 174 -151 26 -19 52 -40 58 -45 6 -6 52 -42
101 -79 50 -37 104 -80 120 -95 17 -14 55 -43 85 -63 30 -20 75 -56 100 -80
24 -24 62 -55 85 -69 22 -14 63 -46 90 -71 28 -24 84 -69 125 -99 41 -30 82
-59 90 -66 16 -13 86 -66 209 -158 82 -62 93 -77 65 -93 -10 -6 -13 -12 -6
-16 17 -10 -10 -54 -46 -73 -30 -16 -35 -16 -60 -2 -15 8 -27 24 -27 34 0 24
-31 23 -110 -3 -38 -13 -51 -22 -53 -39 -3 -17 4 -26 25 -35 35 -14 246 -15
276 0 12 5 61 18 110 27 48 10 87 21 87 25 0 4 -14 18 -31 31 -81 62 -86 68
-66 83 16 12 16 14 1 20 -8 3 -28 6 -43 6 -18 0 -57 23 -120 73 -51 39 -103
79 -115 87 -37 25 -138 101 -196 147 -30 24 -59 47 -65 51 -5 4 -36 27 -67 50
-32 24 -58 46 -58 50 0 4 -23 20 -50 37 -28 16 -50 33 -50 37 0 4 -5 8 -12 8
-6 0 -37 23 -69 50 -32 28 -60 50 -63 50 -6 0 -20 11 -95 75 -29 25 -87 69
-166 126 -5 4 -31 26 -56 48 -25 23 -50 41 -55 41 -5 0 -32 20 -61 45 -50 44
-68 54 -61 36z"/>
<path d="M4690 3808 c-19 -5 -39 -14 -44 -19 -6 -5 -18 -9 -28 -9 -10 0 -18
-5 -18 -11 0 -7 7 -8 18 -4 22 9 54 20 117 39 40 12 44 15 20 14 -16 0 -46 -4
-65 -10z"/>
<path d="M1868 3753 c12 -2 30 -2 40 0 9 3 -1 5 -23 4 -22 0 -30 -2 -17 -4z"/>
<path d="M2107 3744 c-13 -13 -7 -24 14 -24 11 0 19 5 17 12 -5 14 -22 21 -31
12z"/>
<path d="M1550 3730 c-8 -5 -30 -10 -48 -10 -41 0 -72 -16 -72 -35 0 -19 17
-19 51 -1 39 20 79 28 79 16 0 -6 -4 -8 -10 -5 -5 3 -10 2 -10 -4 0 -5 -10
-11 -22 -13 -25 -3 -36 -34 -19 -51 13 -13 93 -10 102 4 3 6 13 11 21 13 9 1
23 8 32 15 14 12 12 17 -20 47 -36 35 -58 41 -84 24z"/>
<path d="M1740 3690 c0 -5 7 -10 15 -10 8 0 15 5 15 10 0 6 -7 10 -15 10 -8 0
-15 -4 -15 -10z"/>
<path d="M4937 3433 c-4 -3 -7 -18 -7 -33 0 -24 3 -27 25 -22 31 5 38 16 30
42 -6 19 -35 27 -48 13z"/>
<path d="M4960 3350 c0 -13 11 -13 30 0 12 8 11 10 -7 10 -13 0 -23 -4 -23
-10z"/>
<path d="M4177 3219 c-3 -13 -1 -19 6 -16 15 5 22 37 9 37 -5 0 -12 -9 -15
-21z"/>
<path d="M2155 3181 c-7 -12 12 -24 25 -16 11 7 4 25 -10 25 -5 0 -11 -4 -15
-9z"/>
<path d="M1972 3173 c-18 -7 -4 -23 19 -23 12 0 19 5 17 12 -5 14 -18 18 -36
11z"/>
<path d="M1632 3158 c-19 -19 -14 -28 14 -28 18 0 25 5 22 17 -4 21 -21 26
-36 11z"/>
<path d="M3783 3153 c-23 -8 -14 -33 12 -33 14 0 25 4 25 9 0 14 -24 29 -37
24z"/>
<path d="M2134 3125 c-10 -8 -14 -14 -9 -15 15 0 40 18 34 24 -3 3 -14 -1 -25
-9z"/>
<path d="M3680 3130 c0 -13 11 -13 30 0 12 8 11 10 -7 10 -13 0 -23 -4 -23
-10z"/>
<path d="M3843 3073 c-9 -3 1 -19 26 -45 30 -33 42 -39 56 -31 15 9 14 13 -15
46 -31 36 -42 41 -67 30z"/>
<path d="M4653 3009 c9 -5 17 -16 17 -23 0 -7 15 -17 33 -22 23 -7 32 -16 32
-31 0 -12 4 -25 8 -29 11 -11 8 -44 -3 -44 -5 0 -10 4 -10 9 0 4 -11 6 -25 3
-29 -5 -34 -22 -6 -22 11 0 21 -4 23 -9 5 -14 59 0 65 17 4 8 -1 19 -10 24
-23 12 -21 35 2 43 11 3 22 12 25 20 3 10 0 12 -11 8 -10 -4 -14 -2 -10 4 11
18 -17 40 -65 52 -26 6 -55 11 -65 11 -17 -1 -17 -1 0 -11z"/>
<path d="M4543 3003 c-13 -2 -23 -9 -23 -14 0 -15 63 -6 68 9 4 12 -4 13 -45
5z"/>
<path d="M4378 2973 c7 -3 16 -2 19 1 4 3 -2 6 -13 5 -11 0 -14 -3 -6 -6z"/>
<path d="M4608 2963 c6 -2 18 -2 25 0 6 3 1 5 -13 5 -14 0 -19 -2 -12 -5z"/>
<path d="M4310 2852 c8 -5 35 -13 60 -17 25 -4 54 -13 65 -19 11 -7 37 -18 57
-25 24 -8 36 -18 35 -29 -1 -21 -83 -28 -107 -9 -8 7 -31 14 -50 16 -19 1 -39
6 -44 11 -11 11 -66 -9 -66 -24 0 -6 9 -17 20 -24 11 -7 20 -19 20 -27 0 -16
-16 -20 -24 -6 -3 5 -17 9 -31 9 -14 0 -36 9 -49 21 -12 11 -46 25 -75 31 -29
5 -56 12 -60 15 -13 7 -42 -19 -45 -40 -2 -11 -9 -19 -15 -17 -6 1 -11 -2 -11
-7 0 -5 12 -11 28 -14 15 -3 43 -16 63 -30 19 -13 66 -32 105 -42 38 -10 71
-22 74 -25 3 -4 16 -13 29 -20 21 -11 23 -10 17 5 -5 14 -3 16 11 10 34 -14
63 -17 63 -7 0 6 -8 13 -17 15 -15 4 -15 5 2 6 11 0 26 -3 33 -8 9 -5 29 -1
54 11 41 20 99 21 105 2 2 -7 -23 -25 -56 -40 -33 -16 -61 -31 -61 -34 0 -6
105 -60 115 -60 3 0 5 13 5 29 0 36 16 50 76 65 48 12 82 44 57 53 -21 8 -16
61 6 68 17 5 19 14 18 65 -1 32 -6 62 -10 66 -10 11 -167 11 -160 1 5 -8 -34
-1 -74 14 -34 12 -181 22 -163 11z m363 -114 c-7 -42 -21 -56 -58 -60 -27 -3
-30 0 -33 30 -2 24 1 34 15 38 10 3 25 9 33 14 8 5 23 9 32 9 14 1 16 -5 11
-31z m-133 -198 c0 -5 -4 -10 -10 -10 -5 0 -10 5 -10 10 0 6 5 10 10 10 6 0
10 -4 10 -10z"/>
<path d="M1526 2743 c10 -10 37 -31 59 -47 22 -16 47 -36 55 -43 45 -41 299
-233 309 -233 26 0 6 21 -76 81 -49 35 -110 81 -138 103 -56 47 -48 41 -140
106 -68 49 -108 68 -69 33z"/>
<path d="M5083 2700 c4 -29 2 -50 -3 -50 -6 0 -10 -8 -9 -17 0 -11 3 -13 6 -5
2 6 10 9 16 5 7 -4 19 -8 27 -8 17 0 21 -68 8 -116 -8 -26 -6 -27 45 -32 60
-6 71 -2 33 12 -35 14 -33 28 7 45 l32 14 -30 1 c-16 1 -37 6 -45 11 -13 9
-11 13 10 30 l25 20 -22 0 c-49 0 -13 35 52 51 30 7 30 7 3 8 -15 1 -39 -4
-53 -9 -35 -13 -30 6 9 34 21 16 40 20 78 19 28 -1 47 1 42 6 -16 14 -113 31
-176 31 l-61 0 6 -50z"/>
<path d="M5820 2729 c0 -5 5 -7 10 -4 6 3 10 8 10 11 0 2 -4 4 -10 4 -5 0 -10
-5 -10 -11z"/>
<path d="M3700 2720 c0 -5 5 -10 11 -10 5 0 7 5 4 10 -3 6 -8 10 -11 10 -2 0
-4 -4 -4 -10z"/>
<path d="M5715 2710 c10 -11 20 -20 23 -20 3 0 -3 9 -13 20 -10 11 -20 20 -23
20 -3 0 3 -9 13 -20z"/>
<path d="M3933 2661 c-18 -15 -33 -33 -33 -39 0 -7 -3 -11 -7 -10 -5 0 -19 -4
-33 -11 -23 -11 -23 -11 -2 -7 12 2 20 1 18 -3 -3 -4 1 -29 9 -57 7 -27 14
-39 14 -26 1 12 5 22 10 22 4 0 11 21 14 46 2 25 15 59 27 76 29 39 23 42 -17
9z"/>
<path d="M5810 2675 c7 -9 15 -13 17 -11 7 7 -7 26 -19 26 -6 0 -6 -6 2 -15z"/>
<path d="M5730 2633 c0 -25 15 -38 25 -22 4 6 0 18 -9 27 -15 15 -16 15 -16
-5z"/>
<path d="M5248 2613 c7 -3 16 -2 19 1 4 3 -2 6 -13 5 -11 0 -14 -3 -6 -6z"/>
<path d="M5656 2587 c-17 -13 -37 -107 -23 -107 3 0 23 15 43 34 35 32 37 37
26 60 -13 30 -21 31 -46 13z"/>
<path d="M3520 2540 c0 -6 7 -10 15 -10 8 0 15 2 15 4 0 2 -7 6 -15 10 -8 3
-15 1 -15 -4z"/>
<path d="M3978 2543 c7 -3 16 -2 19 1 4 3 -2 6 -13 5 -11 0 -14 -3 -6 -6z"/>
<path d="M4068 2543 c7 -3 16 -2 19 1 4 3 -2 6 -13 5 -11 0 -14 -3 -6 -6z"/>
<path d="M3872 2505 c0 -11 3 -29 7 -39 7 -18 8 -18 14 -3 3 9 2 17 -3 17 -5
0 -11 10 -13 23 -4 18 -4 19 -5 2z"/>
<path d="M5333 2458 c-33 -11 -48 -34 -15 -24 9 2 53 8 97 12 74 7 77 8 40 15
-52 10 -83 9 -122 -3z"/>
<path d="M3687 2403 c-12 -11 -8 -33 6 -33 8 0 22 9 32 20 18 19 17 20 -7 20
-13 0 -28 -3 -31 -7z"/>
<path d="M4590 2400 c0 -5 5 -10 11 -10 5 0 7 5 4 10 -3 6 -8 10 -11 10 -2 0
-4 -4 -4 -10z"/>
<path d="M4641 2383 c0 -5 18 -23 40 -42 28 -24 39 -29 39 -18 0 9 -15 27 -33
41 -35 27 -48 32 -46 19z"/>
<path d="M2618 2333 c7 -3 16 -2 19 1 4 3 -2 6 -13 5 -11 0 -14 -3 -6 -6z"/>
<path d="M2533 2303 c-14 -5 -18 -33 -5 -33 4 0 14 5 22 10 17 11 2 30 -17 23z"/>
<path d="M2452 2234 c4 -21 22 -23 26 -1 2 10 -3 17 -13 17 -10 0 -15 -6 -13
-16z"/>
<path d="M3607 2229 c7 -7 15 -10 18 -7 3 3 -2 9 -12 12 -14 6 -15 5 -6 -5z"/>
<path d="M2191 2201 c-8 -5 -9 -11 -3 -15 14 -8 43 4 36 15 -7 11 -15 11 -33
0z"/>
<path d="M4805 2150 c3 -5 8 -10 11 -10 2 0 4 5 4 10 0 6 -5 10 -11 10 -5 0
-7 -4 -4 -10z"/>
<path d="M0 1960 c0 -13 19 -38 47 -63 76 -68 211 -197 277 -266 33 -35 94
-90 134 -123 39 -33 72 -65 72 -73 0 -10 -18 -13 -67 -13 -107 1 -105 1 -97
-24 3 -13 14 -34 23 -48 12 -17 17 -43 16 -80 l-1 -55 -39 -2 c-49 -3 -61 -14
-43 -42 10 -17 20 -20 50 -17 27 3 38 0 43 -12 6 -14 10 -13 29 11 25 31 46
29 71 -9 17 -26 7 -31 -27 -13 -16 9 -19 8 -16 -2 3 -8 22 -19 44 -25 35 -10
37 -12 16 -18 -12 -4 -20 -11 -17 -16 7 -11 154 0 180 13 13 7 20 6 23 -1 3
-9 9 -9 23 -1 33 17 137 -3 154 -30 3 -6 16 -11 29 -11 13 0 51 -26 95 -65 87
-78 116 -76 39 3 -83 86 -88 91 -88 100 0 5 19 15 43 23 l42 13 -32 4 c-18 2
-41 -2 -52 -7 -38 -21 -53 -5 -67 72 -3 20 -10 37 -15 37 -5 0 -9 8 -9 18 0
20 -23 89 -33 98 -4 4 -7 25 -7 46 0 44 5 43 -148 38 l-92 -2 -97 93 c-53 52
-145 141 -205 199 -131 128 -266 252 -284 263 -10 6 -14 2 -14 -13z m578 -582
c-6 -17 -35 -18 -49 -2 -9 12 -6 14 21 14 20 0 30 -4 28 -12z m-35 -175 c-7
-2 -19 -2 -25 0 -7 3 -2 5 12 5 14 0 19 -2 13 -5z"/>
<path d="M3508 1853 c-14 -16 -28 -45 -31 -67 -4 -21 -13 -46 -20 -55 -8 -9
-18 -35 -22 -58 -6 -39 -5 -41 15 -36 26 7 36 28 22 46 -16 18 -3 57 18 57 22
0 32 24 18 38 -13 13 6 42 27 42 7 0 18 7 25 15 10 12 10 18 0 30 -17 20 -22
19 -52 -12z"/>
<path d="M250 1810 c0 -5 4 -10 9 -10 6 0 13 5 16 10 3 6 -1 10 -9 10 -9 0
-16 -4 -16 -10z"/>
<path d="M3536 1735 c-21 -31 -20 -64 0 -72 23 -9 44 23 44 64 0 40 -21 44
-44 8z"/>
<path d="M3422 1573 c-3 -31 -1 -33 18 -23 25 13 26 46 2 52 -15 4 -19 -2 -20
-29z"/>
<path d="M3415 1483 c-8 -33 2 -45 25 -30 25 15 26 43 1 50 -14 3 -21 -2 -26
-20z"/>
<path d="M3420 1381 c0 -32 6 -37 28 -22 19 11 11 45 -11 49 -13 3 -17 -3 -17
-27z"/>
<path d="M3436 1288 c-8 -32 -7 -48 2 -48 12 0 33 50 27 61 -10 16 -22 10 -29
-13z"/>
<path d="M0 931 c0 -206 3 -310 10 -306 5 3 10 13 10 21 0 8 5 14 10 14 6 0
10 -19 10 -42 0 -24 3 -53 6 -65 8 -28 -13 -31 -32 -5 -12 15 -13 10 -14 -35
0 -45 3 -52 22 -55 32 -5 35 -28 4 -28 l-26 0 0 -215 0 -216 143 2 143 1 24
36 c14 19 25 39 25 43 0 4 14 18 30 30 17 13 36 29 43 36 7 7 20 13 29 13 9 0
13 6 10 14 -3 8 3 26 14 39 10 14 19 30 19 35 0 5 7 12 15 16 23 9 18 29 -6
23 -18 -5 -20 -2 -16 18 3 18 -1 26 -15 30 -10 4 -15 11 -11 18 4 6 6 24 5 39
-2 18 4 31 18 38 23 12 40 6 40 -16 0 -25 45 -16 61 12 12 24 12 28 -9 44 -12
10 -22 22 -22 28 0 20 -43 46 -78 47 -26 1 -38 7 -40 18 -2 12 3 17 17 17 12
0 21 -4 21 -10 0 -5 5 -10 10 -10 16 0 12 37 -5 44 -8 3 -15 11 -15 18 0 7
-10 19 -21 27 -18 11 -23 11 -31 -1 -8 -10 -8 -9 -4 5 3 9 1 17 -4 17 -6 0
-10 7 -10 16 0 14 8 16 50 10 40 -5 50 -4 50 7 0 8 7 20 15 27 24 20 18 46
-16 75 -19 15 -28 30 -23 35 5 5 38 13 74 17 61 7 65 10 65 33 0 20 -4 24 -23
22 -13 -2 -32 4 -41 12 -16 15 -19 15 -31 1 -7 -8 -19 -15 -26 -15 -8 0 -14
-9 -14 -21 0 -11 -4 -18 -9 -15 -5 3 -22 -1 -37 -9 -16 -8 -39 -15 -51 -15
-12 0 -28 -7 -37 -15 -20 -20 -63 -19 -75 3 -6 9 -11 11 -11 5 0 -9 -15 -13
-42 -12 -24 0 -36 3 -28 7 22 10 23 29 3 62 -14 24 -14 31 -4 44 8 9 18 16 23
16 6 0 19 11 29 24 20 25 97 54 158 58 49 4 50 25 2 33 -23 4 -41 11 -41 16 0
5 -11 7 -24 3 -18 -4 -25 -1 -29 16 -3 13 0 23 9 27 25 9 15 29 -22 42 -20 7
-45 22 -56 33 -16 16 -38 21 -119 25 l-99 6 0 -312z m270 179 c0 -5 -4 -10
-10 -10 -5 0 -10 5 -10 10 0 6 5 10 10 10 6 0 10 -4 10 -10z m-110 -30 c0 -5
-5 -10 -11 -10 -5 0 -7 5 -4 10 3 6 8 10 11 10 2 0 4 -4 4 -10z m-90 -64 c0
-3 -4 -8 -10 -11 -5 -3 -10 -1 -10 4 0 6 5 11 10 11 6 0 10 -2 10 -4z m13
-151 c-3 -9 -8 -14 -10 -11 -3 3 -2 9 2 15 9 16 15 13 8 -4z m21 -80 c-4 -8
-10 -15 -14 -15 -4 0 -10 7 -14 15 -4 10 1 15 14 15 13 0 18 -5 14 -15z m59
-35 c3 -12 0 -20 -8 -20 -16 0 -37 25 -28 33 13 13 31 7 36 -13z m2 -40 c-3
-5 -2 -10 4 -10 6 0 8 -6 5 -14 -3 -8 -1 -17 5 -21 6 -3 11 -13 11 -21 0 -11
-4 -13 -17 -6 -21 12 -27 82 -7 82 3 0 2 -4 -1 -10z m168 -171 c-7 -7 -12 -3
-15 16 -5 25 -4 25 10 11 12 -11 13 -19 5 -27z m135 -39 c4 -23 -56 -44 -74
-25 -8 7 -14 21 -14 30 0 22 83 17 88 -5z m-433 0 c3 -5 1 -10 -4 -10 -6 0
-11 5 -11 10 0 6 2 10 4 10 3 0 8 -4 11 -10z m515 -35 c6 -8 10 -21 8 -30 -3
-13 -7 -13 -37 2 -19 10 -37 24 -39 31 -5 17 53 16 68 -3z m-120 -126 c0 -3
-7 -12 -15 -19 -8 -7 -15 -18 -15 -25 0 -6 -9 -20 -19 -29 -18 -16 -20 -16
-35 6 -9 12 -16 40 -16 61 0 50 31 64 72 34 16 -12 28 -24 28 -28z m-275 18
c10 -8 15 -19 11 -25 -9 -15 -56 6 -56 25 0 17 21 17 45 0z m250 -127 c3 -6
-1 -7 -9 -4 -18 7 -21 14 -7 14 6 0 13 -4 16 -10z"/>
<path d="M3440 1149 c0 -17 4 -28 10 -24 6 3 10 17 10 31 0 13 -4 24 -10 24
-5 0 -10 -14 -10 -31z"/>
<path d="M1093 1148 c-33 -11 -45 -28 -19 -28 17 0 86 28 86 35 0 8 -32 4 -67
-7z"/>
<path d="M2320 1071 c0 -25 6 -27 13 -6 4 8 2 17 -3 20 -6 4 -10 -3 -10 -14z"/>
<path d="M3440 1055 c0 -20 4 -26 18 -23 9 2 17 12 17 23 0 11 -8 21 -17 23
-14 3 -18 -3 -18 -23z"/>
<path d="M3551 1016 c-7 -8 -11 -30 -9 -48 2 -25 8 -34 25 -36 26 -4 46 27 41
66 -3 31 -37 42 -57 18z"/>
<path d="M3450 965 c0 -16 6 -25 15 -25 8 0 15 9 15 19 0 10 -7 21 -15 25 -11
4 -15 -1 -15 -19z"/>
<path d="M4036 961 c-3 -5 1 -11 9 -15 8 -3 15 -12 15 -21 0 -8 6 -15 14 -15
8 0 18 -9 21 -20 3 -11 13 -20 21 -20 19 0 18 36 -1 44 -8 3 -15 12 -15 20 0
25 -52 47 -64 27z"/>
<path d="M733 928 c-42 -8 -53 -13 -53 -29 0 -24 35 -26 76 -4 16 8 39 15 51
15 28 0 53 10 53 21 0 11 -58 10 -127 -3z"/>
<path d="M4010 890 c0 -5 9 -19 20 -30 11 -11 19 -25 18 -32 -4 -18 31 -22 38
-4 4 10 -6 27 -24 46 -31 30 -52 39 -52 20z"/>
<path d="M3452 878 c-18 -18 -15 -41 4 -34 9 3 18 6 20 6 2 0 4 9 4 20 0 23
-10 26 -28 8z"/>
<path d="M1595 810 c3 -5 10 -10 16 -10 5 0 9 5 9 10 0 6 -7 10 -16 10 -8 0
-12 -4 -9 -10z"/>
<path d="M4012 788 c5 -32 28 -35 28 -4 0 17 -5 26 -16 26 -10 0 -14 -7 -12
-22z"/>
<path d="M1480 790 c0 -12 65 -24 82 -14 9 6 6 10 -12 15 -37 10 -70 10 -70
-1z"/>
<path d="M1705 780 c3 -5 8 -10 11 -10 2 0 4 5 4 10 0 6 -5 10 -11 10 -5 0 -7
-4 -4 -10z"/>
<path d="M3446 768 c-10 -38 -7 -42 14 -23 23 21 26 45 6 45 -7 0 -16 -10 -20
-22z"/>
<path d="M1635 770 c4 -6 11 -8 16 -5 14 9 11 15 -7 15 -8 0 -12 -5 -9 -10z"/>
<path d="M1360 760 c0 -5 8 -10 18 -10 9 0 28 -3 42 -6 24 -6 25 -6 5 9 -22
18 -65 23 -65 7z"/>
<path d="M1735 750 c3 -5 11 -10 16 -10 6 0 7 5 4 10 -3 6 -11 10 -16 10 -6 0
-7 -4 -4 -10z"/>
<path d="M1250 714 c0 -12 6 -15 23 -10 12 3 33 6 47 6 20 0 22 2 10 10 -26
16 -80 12 -80 -6z"/>
<path d="M3442 700 c1 -14 -2 -41 -5 -60 -4 -19 -4 -28 0 -20 3 8 14 26 24 39
23 28 24 41 5 41 -8 0 -17 6 -19 13 -3 6 -5 1 -5 -13z"/>
<path d="M1210 683 c-13 -3 -33 -11 -43 -18 -25 -18 -5 -29 39 -21 25 5 34 12
34 26 0 11 -1 19 -2 19 -2 -1 -14 -4 -28 -6z"/>
<path d="M497 646 c-16 -13 -16 -14 -1 -20 21 -8 42 10 29 23 -6 6 -17 5 -28
-3z"/>
<path d="M698 613 c-27 -4 -28 -7 -30 -61 -1 -62 0 -178 4 -257 3 -42 6 -50
24 -53 14 -2 24 6 35 30 11 26 22 34 49 39 19 4 46 11 60 17 l25 10 -29 11
c-18 7 -32 8 -35 2 -6 -8 -52 -14 -93 -12 -32 2 -22 54 17 90 19 17 35 36 35
41 0 6 7 10 15 10 9 0 19 9 23 21 5 11 12 19 17 17 6 -2 11 5 13 15 2 9 -2 17
-8 17 -6 0 -8 5 -5 10 4 6 -6 10 -22 10 -51 0 -75 11 -70 31 3 11 4 18 4 18
-1 -1 -14 -4 -29 -6z"/>
<path d="M1138 609 c-22 -12 -24 -39 -3 -39 16 0 29 22 23 39 -2 6 -9 6 -20 0z"/>
<path d="M6373 613 c-27 -5 -29 -16 -7 -37 23 -24 34 -19 34 14 0 17 -1 29 -2
29 -2 -1 -13 -4 -25 -6z"/>
<path d="M740 600 c0 -5 7 -10 15 -10 8 0 15 5 15 10 0 6 -7 10 -15 10 -8 0
-15 -4 -15 -10z"/>
<path d="M1450 589 c-111 -21 -176 -47 -249 -100 -33 -25 -52 -50 -77 -105
-32 -71 -64 -208 -64 -277 0 -24 -6 -40 -19 -49 -19 -14 -19 -14 0 -26 11 -7
17 -17 14 -22 -4 -6 123 -10 350 -10 l357 0 -30 30 c-17 17 -39 30 -49 30 -21
1 -44 18 -59 45 -6 11 -24 22 -39 25 -26 5 -49 30 -27 30 5 0 15 12 22 28 7
15 15 22 17 15 6 -18 23 -16 23 2 0 8 -4 15 -10 15 -5 0 -10 9 -10 20 0 11 -7
20 -15 20 -8 0 -15 5 -15 10 0 17 22 11 41 -12 l19 -21 20 21 c11 12 27 19 35
16 8 -4 29 3 47 13 36 21 83 17 83 -7 1 -8 6 -24 13 -35 11 -19 11 -18 12 9
l0 29 58 -6 c69 -7 97 4 67 27 -11 9 -16 16 -11 16 6 0 1 6 -9 14 -18 13 -18
14 3 20 28 9 52 -14 52 -51 1 -26 2 -27 15 -10 7 11 11 25 8 33 -3 8 1 14 11
14 9 0 15 -7 14 -17 -2 -27 13 -83 23 -83 5 0 9 12 9 28 1 24 2 25 14 10 7 -9
43 -24 80 -34 49 -12 72 -23 83 -41 12 -18 22 -23 38 -19 14 4 28 0 35 -9 9
-10 9 -15 1 -15 -6 0 -11 -6 -11 -14 0 -8 8 -12 23 -9 14 3 29 -2 36 -11 8 -9
19 -16 25 -16 6 0 22 -10 36 -23 14 -12 44 -31 68 -41 24 -11 46 -26 51 -33 5
-11 34 -13 127 -11 l119 3 -50 34 c-27 19 -51 38 -53 43 -2 4 -9 8 -15 8 -7 0
-29 16 -50 35 -21 19 -57 46 -80 59 -23 14 -51 33 -62 43 -36 33 -75 54 -87
47 -7 -4 -8 -3 -4 4 4 7 -2 16 -16 21 -13 5 -41 23 -62 40 -45 36 -132 82
-191 101 -22 7 -46 18 -54 23 -25 21 -80 35 -84 23 -2 -6 -24 10 -49 36 -36
38 -49 46 -68 41 -14 -4 -21 -2 -17 4 7 11 -208 44 -273 42 -19 0 -82 -10
-140 -20z m253 -6 c-7 -2 -19 -2 -25 0 -7 3 -2 5 12 5 14 0 19 -2 13 -5z m217
-244 c0 -11 -4 -17 -10 -14 -5 3 -10 13 -10 21 0 8 5 14 10 14 6 0 10 -9 10
-21z m-380 -129 c0 -16 -4 -30 -10 -30 -5 0 -10 14 -10 30 0 17 5 30 10 30 6
0 10 -13 10 -30z"/>
<path d="M3442 590 c-6 -11 -12 -30 -12 -42 0 -20 3 -19 21 11 11 18 17 37 12
42 -5 5 -14 0 -21 -11z"/>
<path d="M1092 538 c-7 -7 -12 -18 -12 -25 0 -18 29 -16 37 3 8 21 -10 37 -25
22z"/>
<path d="M6310 508 c0 -9 -3 -30 -6 -47 -6 -31 -6 -32 20 -25 37 9 33 -9 -9
-40 -38 -29 -38 -46 0 -46 16 0 29 -11 44 -35 22 -38 41 -46 41 -16 0 10 -11
26 -25 35 -14 9 -25 22 -25 29 0 8 11 24 25 37 31 29 32 53 3 66 -13 6 -18 9
-12 8 6 -1 17 2 25 7 20 12 0 28 -44 36 -29 4 -37 2 -37 -9z"/>
<path d="M3426 454 c-8 -22 -7 -34 3 -34 12 0 21 39 11 45 -4 3 -11 -2 -14
-11z"/>
<path d="M1070 441 c0 -11 5 -23 10 -26 6 -4 10 5 10 19 0 14 -4 26 -10 26 -5
0 -10 -9 -10 -19z"/>
<path d="M3420 361 c-15 -29 -12 -41 10 -41 16 0 20 7 20 30 0 34 -14 39 -30
11z"/>
<path d="M3506 268 c-21 -29 -21 -77 0 -85 24 -9 46 21 48 63 1 46 -23 57 -48
22z"/>
<path d="M3404 255 c-8 -31 -3 -38 20 -29 20 8 22 54 1 54 -8 0 -17 -11 -21
-25z"/>
<path d="M5920 216 c0 -2 7 -6 15 -10 8 -3 15 -1 15 4 0 6 -7 10 -15 10 -8 0
-15 -2 -15 -4z"/>
<path d="M2218 193 c7 -3 16 -2 19 1 4 3 -2 6 -13 5 -11 0 -14 -3 -6 -6z"/>
<path d="M3397 159 c-3 -12 0 -22 8 -25 21 -8 34 4 28 26 -7 26 -29 26 -36 -1z"/>
<path d="M6307 163 c-12 -11 4 -77 21 -91 23 -18 42 -15 42 7 0 10 7 24 15 31
8 7 15 21 15 31 0 16 -3 17 -19 7 -16 -10 -23 -9 -39 5 -21 19 -25 20 -35 10z"/>
<path d="M1837 83 c-4 -3 -7 -15 -7 -25 0 -11 -7 -18 -18 -18 -19 0 -42 -18
-42 -32 0 -13 115 -9 129 5 11 9 14 9 18 0 3 -7 18 -13 34 -13 49 0 33 26 -35
59 -71 34 -70 34 -79 24z"/>
<path d="M3396 82 c-2 -4 -7 -24 -11 -45 -7 -34 -6 -37 16 -36 13 0 18 3 12 6
-19 7 -16 21 6 28 13 4 17 12 13 30 -4 24 -25 34 -36 17z"/>
<path d="M6270 19 c-14 -6 -40 -8 -57 -5 -20 3 -33 0 -33 -6 0 -14 117 -5 132
10 15 15 -6 15 -42 1z"/>
</g>
</svg>
